<svg xmlns="http://www.w3.org/2000/svg" width="57" height="40" x="KIX_XX" y="KIX_YY" id="bancontact"><g fill="none" fill-rule="evenodd"><path fill="#FFF" fill-rule="nonzero" d="M56.533 36.56a3.448 3.448 0 0 1-3.44 3.44H3.44A3.448 3.448 0 0 1 0 36.56V3.44A3.448 3.448 0 0 1 3.44 0h49.653a3.448 3.448 0 0 1 3.44 3.44v33.12z"/><path fill="#004E91" fill-rule="nonzero" d="M45.413 11.173H31.84l-1.387 1.574L26 17.787l-1.387 1.573H11.227l1.36-1.573.64-.747 1.36-1.573h-6.16c-1.12 0-2.054.96-2.054 2.106v4.4c0 1.174.907 2.107 2.054 2.107H32.027c1.12 0 2.666-.72 3.413-1.573l3.573-4.054 6.4-7.28z"/><path fill="#FD0" fill-rule="nonzero" d="M48.133 6.427c1.12 0 2.054.96 2.054 2.106v4.454c0 1.173-.907 2.106-2.054 2.106h-6.16l1.36-1.573.667-.773 1.36-1.574H31.813l-7.2 8.16H11.147L20.8 8.4l.373-.427c.774-.853 2.294-1.573 3.44-1.573h.454l23.066.027z"/><path fill="#004E91" fill-rule="nonzero" d="M50.187 33.387v-.64c0-.08-.054-.134-.187-.134h-.4c-.133 0-.213-.026-.213-.08-.027-.053-.027-.16-.027-.32v-2.426h.667c.053 0 .08-.027.133-.054a.204.204 0 0 0 .053-.133v-.667c0-.053-.026-.08-.053-.133a.204.204 0 0 0-.133-.053h-.694v-.88c0-.054-.026-.08-.026-.107-.027-.027-.08-.027-.107-.027h-.027l-1.013.187c-.053.027-.08.027-.133.053a.202.202 0 0 0-.054.107v.667h-.666c-.054 0-.08.026-.134.053-.053.027-.053.08-.053.133v.56c0 .054.027.08.053.107.027.027.08.053.134.08l.666.107v2.426c0 .294.027.534.08.72.08.187.16.32.267.427a.924.924 0 0 0 .427.213c.186.027.373.054.613.054.133 0 .213 0 .32-.027.08-.027.213-.027.32-.053.133-.027.187-.08.187-.16m-3.6-.08v-.747c0-.053-.027-.08-.054-.107-.026-.026-.08-.026-.106-.026H46.4c-.16.026-.32.026-.453.026-.134.027-.32.027-.56.027a.947.947 0 0 1-.267-.053.415.415 0 0 1-.213-.16c-.08-.08-.107-.187-.134-.294-.026-.133-.053-.266-.053-.48V30.8c0-.187.027-.347.053-.48a.75.75 0 0 1 .134-.293c.08-.08.133-.134.213-.16a.947.947 0 0 1 .267-.054c.24 0 .426 0 .56.027.133.027.293.027.453.027h.027c.053 0 .08-.027.106-.027.027-.027.054-.053.054-.107v-.746c0-.08-.027-.107-.027-.134-.027-.026-.08-.053-.133-.08-.134-.026-.267-.053-.454-.08-.186-.026-.4-.026-.666-.026-.587 0-1.067.186-1.414.533-.346.373-.533.88-.533 1.573v.694c0 .666.187 1.226.533 1.573.347.373.827.533 1.414.533.24 0 .48-.026.666-.026a5 5 0 0 0 .454-.08c.08-.027.106-.027.133-.08.027.026.027-.027.027-.08m-5.44-.88c-.107.053-.214.08-.32.133-.134.027-.24.053-.374.053-.186 0-.32-.026-.4-.08-.08-.053-.133-.16-.133-.346v-.08c0-.107.027-.187.027-.267.026-.08.08-.133.133-.187.053-.053.133-.08.213-.133.08-.027.214-.027.374-.027h.48v.934zm1.333-2.054c0-.32-.053-.56-.133-.773-.08-.213-.214-.373-.374-.533a1.636 1.636 0 0 0-.613-.294c-.24-.08-.533-.106-.827-.106a8.6 8.6 0 0 0-.826.053c-.267.027-.48.08-.614.133-.106.027-.16.08-.16.187v.667c0 .053.027.08.027.133.027.027.08.027.107.027h.026c.08 0 .16-.027.24-.027.107 0 .214-.027.32-.027.134 0 .267-.026.4-.026h.4c.187 0 .347.026.454.106.106.08.186.214.186.48v.294h-.453c-.72 0-1.253.106-1.573.32-.32.213-.48.586-.48 1.066v.08c0 .267.026.507.133.667.08.187.187.32.32.453.133.107.267.187.453.24.187.054.347.08.534.08.24 0 .48-.026.64-.106.186-.08.346-.16.533-.267v.133c0 .054.027.08.053.134.027.053.08.053.134.053h.933c.053 0 .08-.027.133-.053a.204.204 0 0 0 .054-.134l-.027-2.96zm-4.453 3.014v-.64c0-.08-.054-.134-.187-.134h-.4c-.133 0-.213-.026-.213-.08-.027-.053-.027-.16-.027-.32v-2.426h.667c.053 0 .08-.027.133-.054.053-.026.053-.08.053-.133v-.667c0-.053-.026-.08-.053-.133-.027-.053-.08-.053-.133-.053H37.2v-.88c0-.054-.027-.08-.027-.107-.026-.027-.08-.027-.106-.027h-.027l-1.013.187c-.054.027-.08.027-.134.053a.202.202 0 0 0-.053.107v.667h-.667c-.053 0-.08.026-.133.053-.053.027-.053.08-.053.133v.56c0 .054.026.08.053.107.027.027.08.053.133.08l.667.107v2.426c0 .294.027.534.08.72.08.187.16.32.267.427a.813.813 0 0 0 .426.213c.187.027.374.054.614.054.133 0 .213 0 .32-.027.08-.027.213-.027.32-.053.106-.027.16-.08.16-.16m-3.654-.027v-2.773c0-.267-.026-.507-.08-.747-.026-.213-.133-.427-.213-.613a.941.941 0 0 0-.453-.4c-.187-.107-.427-.16-.747-.16-.267 0-.507.026-.72.106-.213.08-.427.187-.667.347v-.213c0-.054-.026-.08-.053-.134-.027-.053-.08-.053-.133-.053H30.4c-.053 0-.08.027-.133.053-.054.027-.054.08-.054.134v4.453c0 .053.027.08.054.133.026.054.08.054.133.054h1.013c.054 0 .08-.027.134-.054.053-.026.053-.08.053-.133v-3.28c.133-.08.267-.133.427-.187.133-.053.266-.08.373-.08.133 0 .213.027.32.027.08.027.133.08.187.133.053.08.08.134.08.24.026.107.026.214.026.374v2.773c0 .053.027.08.054.133.026.054.08.054.133.054h1.013c.054 0 .08-.027.134-.054.026-.026.026-.08.026-.133m-6.293-1.92c0 .667-.24 1.013-.747 1.013-.24 0-.426-.08-.56-.266-.133-.187-.186-.427-.186-.774v-.586c0-.347.08-.587.186-.774.134-.186.32-.266.56-.266.48 0 .747.346.747 1.013v.64zm1.333-.587c0-.32-.053-.64-.133-.906a1.544 1.544 0 0 0-.4-.667 1.91 1.91 0 0 0-.667-.427 2.392 2.392 0 0 0-.906-.16c-.347 0-.64.054-.907.16a1.91 1.91 0 0 0-.667.427c-.186.187-.32.427-.4.667-.08.266-.133.56-.133.906v.587c0 .32.053.64.133.907.08.266.214.48.4.666.187.187.4.32.667.427.267.107.56.16.907.16.346 0 .64-.053.906-.16.267-.107.48-.24.667-.427.187-.186.32-.426.4-.666.08-.267.133-.56.133-.907v-.587zm-4.64 2.454v-.747c0-.053-.026-.08-.053-.107-.027-.026-.08-.026-.133-.026h-.027c-.16.026-.32.026-.453.026-.134 0-.32.027-.56.027a.947.947 0 0 1-.267-.053.415.415 0 0 1-.213-.16c-.08-.08-.107-.187-.134-.294-.026-.133-.053-.266-.053-.48V30.8c0-.187.027-.347.053-.48a.75.75 0 0 1 .134-.293c.08-.08.133-.134.213-.16a.947.947 0 0 1 .267-.054c.24 0 .426 0 .56.027.133.027.293.027.453.027h.027c.053 0 .08-.027.133-.027.027-.027.053-.053.053-.107v-.746c0-.08-.026-.107-.026-.134a.583.583 0 0 0-.134-.08c-.133-.026-.266-.053-.453-.08-.187-.026-.4-.026-.667-.026-.586 0-1.066.186-1.413.533-.347.373-.533.88-.533 1.573v.694c0 .666.186 1.226.533 1.573.347.373.827.533 1.413.533.24 0 .48-.026.667-.026.187-.027.32-.054.453-.08.08-.027.107-.027.134-.08.026.026.026-.027.026-.08m-4.08.053v-2.773c0-.267-.026-.507-.08-.747-.026-.213-.133-.427-.213-.613a.941.941 0 0 0-.453-.4c-.187-.107-.427-.16-.747-.16-.267 0-.507.026-.72.106-.213.08-.427.187-.667.347v-.213c0-.054-.026-.08-.053-.134a.204.204 0 0 0-.133-.053h-.934c-.053 0-.08.027-.133.053-.053.027-.053.08-.053.134v4.453c0 .053.026.08.053.133.027.027.08.054.133.054h1.014c.053 0 .08-.027.133-.054.053-.026.053-.08.053-.133v-3.28c.134-.08.267-.133.427-.187.133-.053.267-.08.373-.08.107 0 .214.027.32.027.08.027.134.08.187.133.053.08.08.134.08.24.027.107.027.214.027.374v2.773c0 .053.026.08.053.133.027.027.08.054.133.054h1.014c.053 0 .08-.027.133-.054 0-.026.053-.08.053-.133m-6.453-.933c-.107.053-.213.08-.32.133-.133.027-.24.053-.373.053-.187 0-.32-.026-.4-.08-.08-.053-.134-.16-.134-.346v-.08c0-.107.027-.187.027-.267 0-.08.08-.133.133-.187.054-.053.134-.08.214-.133.08-.027.213-.027.373-.027h.48v.934zm1.333-2.054c0-.32-.053-.56-.133-.773-.08-.213-.213-.373-.373-.533a1.636 1.636 0 0 0-.614-.294c-.24-.08-.533-.106-.826-.106a8.6 8.6 0 0 0-.827.053c-.267.027-.48.08-.613.133-.107.027-.16.08-.16.187v.667c0 .053.026.08.026.133.027.027.08.027.107.027h.027c.08 0 .16-.027.24-.027.106 0 .213-.027.346-.027.134 0 .267-.026.4-.026h.4c.187 0 .347.026.454.106.106.08.186.214.186.48v.294h-.453c-.72 0-1.253.106-1.573.32-.32.213-.48.586-.48 1.066v.08c0 .267.026.507.133.667.08.187.187.32.32.453.133.107.267.187.453.24.187.054.347.08.534.08.24 0 .48-.026.64-.106.186-.08.346-.16.533-.267v.133c0 .054.027.08.053.134.027.026.08.053.134.053h.933c.053 0 .08-.027.133-.053.054-.027.054-.08.054-.134v-2.986h-.054v.026zM9.6 31.707c0 .213-.08.426-.24.533-.16.133-.48.187-.88.187h-.693v-1.574h.933c.32 0 .56.08.693.214.134.16.187.32.187.533v.107zm-.027-2.48c0 .08-.026.186-.026.266a.58.58 0 0 1-.134.214.834.834 0 0 1-.266.133c-.107.027-.24.053-.427.053h-.933v-1.44h.64c.426 0 .72.054.906.16.187.107.267.267.267.507l-.027.107zm1.414 2.4c0-.294-.08-.534-.214-.747a1.317 1.317 0 0 0-.533-.48c.213-.107.4-.267.533-.48.134-.213.187-.48.187-.72v-.16c0-.32-.08-.613-.187-.827-.133-.213-.32-.4-.533-.533-.213-.133-.507-.213-.827-.293a6.439 6.439 0 0 0-1.066-.08H7.92c-.133 0-.267.026-.427.026-.133 0-.266.027-.373.027a1.225 1.225 0 0 1-.267.027.603.603 0 0 0-.346.16c-.08.08-.107.213-.107.4v5.066c0 .187.027.32.107.4.08.08.186.134.346.16.08.027.187.027.294.027.133.027.24.027.373.027s.267.026.427.026h.426c.374 0 .72-.026 1.014-.08.32-.053.613-.16.826-.293.24-.133.427-.32.56-.56.134-.24.214-.56.214-.907v-.186z"/><path d="M0 0L56.507 0 56.507 40 0 40z"/></g></svg>