<svg xmlns="http://www.w3.org/2000/svg" width="57" height="40" x="KIX_XX" y="KIX_YY" id="carte_bleue"><g fill="none"><path fill="#3570DE" d="M48.267 24.16a4.223 4.223 0 0 1-1.174 2.933 4.185 4.185 0 0 1-2.986 1.227h-14.16v-7.493c0 4.213-3.307 7.493-7.494 7.493h-6.666c-4.214 0-7.52-3.28-7.52-7.493V18.32c0-4.187 3.306-7.493 7.493-7.493h6.667c4.186 0 7.493 4.133 7.493 8.346H19.093V20h25.014c2.4 0 4.16 1.867 4.16 4.16z"/><path fill="#3570DE" d="M48.267 14.987a4.223 4.223 0 0 1-1.174 2.933 4.185 4.185 0 0 1-2.986 1.227h-14.16v-8.32h14.16c2.4 0 4.16 1.866 4.16 4.16z"/><path fill="#FFF" d="M19.093 19.173H29.92c0-4.213-3.307-8.346-7.493-8.346H15.76c-4.187 0-7.493 3.306-7.493 7.52v2.506c0 4.214 3.306 7.494 7.493 7.494h6.667c4.186 0 7.493-3.28 7.493-7.494V20H19.093v-.827zM44.107 20h-14.16v8.32h14.16c1.2 0 2.24-.48 2.986-1.227.747-.746 1.174-1.786 1.174-2.933 0-2.293-1.76-4.16-4.16-4.16zm0-9.173h-14.16v8.346h14.16c1.2 0 2.24-.48 2.986-1.226.747-.747 1.174-1.787 1.174-2.934 0-2.32-1.76-4.186-4.16-4.186z"/><path fill="#3570DE" d="M56.507 36.56V3.44A3.449 3.449 0 0 0 53.067 0H3.2A3.21 3.21 0 0 0 0 3.2v33.36A3.448 3.448 0 0 0 3.44 40h49.68a3.404 3.404 0 0 0 3.387-3.44zM44.107 20c2.4 0 4.16 1.867 4.16 4.16a4.223 4.223 0 0 1-1.174 2.933 4.185 4.185 0 0 1-2.986 1.227h-14.16v-7.493c0 4.213-3.307 7.493-7.494 7.493h-6.666c-4.214 0-7.52-3.28-7.52-7.493V18.32c0-4.187 3.306-7.493 7.493-7.493h6.667c4.186 0 7.493 4.133 7.493 8.346v-8.346h14.16c2.4 0 4.16 1.866 4.16 4.16a4.223 4.223 0 0 1-1.173 2.933 4.185 4.185 0 0 1-2.987 1.227H19.093V20h25.014z"/></g></svg>