<svg xmlns="http://www.w3.org/2000/svg" xmlns:xlink="http://www.w3.org/1999/xlink" width="57" height="40" x="KIX_XX" y="KIX_YY" id="digiteal_standard"><defs><path id="a" d="M8.277 26.123c1.274 0 2.392-.285 3.355-.854.962-.57 1.444-1.516 1.444-2.839 0-1.062-.38-1.873-1.14-2.431-.438-.32-1.062-.572-1.87-.757l-1.675-.382c-1.128-.26-1.852-.477-2.172-.65-.488-.272-.732-.7-.732-1.286 0-.531.209-.997.626-1.399.418-.4 1.104-.602 2.058-.602 1.182 0 2.02.312 2.513.936.266.341.44.832.52 1.472h1.522c0-1.329-.438-2.295-1.314-2.9-.875-.604-1.94-.906-3.192-.906-1.361 0-2.413.344-3.156 1.032-.743.69-1.114 1.57-1.114 2.644 0 .992.38 1.738 1.139 2.236.439.288 1.187.55 2.244.79l1.619.365c.878.2 1.524.437 1.936.708.406.276.61.74.61 1.39 0 .868-.483 1.47-1.448 1.806a5.024 5.024 0 0 1-1.66.26c-1.355 0-2.3-.395-2.838-1.187-.282-.423-.442-.973-.48-1.651h-1.52c-.017 1.29.395 2.313 1.236 3.066.84.76 2.003 1.139 3.489 1.139z"/><path id="b" d="M19.126 26.082c1.35 0 2.423-.512 3.22-1.537.667-.851 1.06-1.906 1.18-3.164H22.2c-.136.786-.342 1.42-.618 1.903-.526.917-1.29 1.375-2.294 1.375-1.09 0-1.908-.434-2.456-1.301-.33-.52-.561-1.136-.691-1.847h4.253l.342-1.155H16.02a14.988 14.988 0 0 1 .016-1.285h4.36l.341-1.155h-4.538c.146-.72.387-1.309.724-1.764.607-.83 1.407-1.245 2.399-1.245.808 0 1.437.225 1.887.675.45.45.748 1.06.894 1.83h1.326c-.076-1.014-.465-1.92-1.167-2.716-.702-.797-1.688-1.196-2.956-1.196-1.491 0-2.66.613-3.506 1.838-.504.727-.848 1.586-1.033 2.578h-1.724l-.342 1.155h1.936c-.01.201-.016.402-.016.602 0 .233.005.461.016.683h-1.594l-.342 1.155h2.05c.211 1.416.691 2.519 1.44 3.31.791.841 1.77 1.261 2.936 1.261z"/><path id="c" d="M24.615 25.773v-5.05h3.757c1.204 0 2.096-.346 2.676-1.038.58-.69.87-1.503.87-2.435 0-1.085-.325-1.927-.976-2.526-.65-.599-1.507-.899-2.57-.899h-5.376v11.948h1.619zm3.22-6.417h-3.22v-4.14h3.22c.624 0 1.115.084 1.473.252.65.315.976.911.976 1.79 0 .78-.227 1.325-.68 1.634-.452.31-1.042.464-1.768.464zm5.523 6.417l1.293-3.578h4.726l1.211 3.578h1.773l-4.335-11.948h-1.83L31.7 25.773h1.659zm5.498-4.896h-3.741l1.927-5.278 1.814 5.278z"/><path id="d" d="M5.592 34.556c.84 0 1.434-.371 1.778-1.114.196-.42.294-.891.294-1.412 0-.674-.166-1.226-.497-1.658-.372-.478-.894-.717-1.568-.717H3.613v4.901h1.979zm-.127-.567H4.281v-3.764h1.178c.536 0 .924.168 1.166.504.241.336.362.808.362 1.415 0 .158-.017.33-.05.514-.058.309-.153.563-.284.76a1.218 1.218 0 0 1-.634.501c-.145.047-.33.07-.554.07zm3.584-3.654v-.68h-.61v.68h.61zm0 4.221V31h-.61v3.557h.61zm1.525 0v-2.055c0-.254.08-.478.243-.672.163-.195.395-.292.698-.292a.897.897 0 0 1 .197.017v-.635a7.972 7.972 0 0 0-.194-.016.891.891 0 0 0-.63.258c-.183.173-.298.319-.344.44v-.618h-.57v3.573h.6zm3.053.127c.182 0 .346-.018.49-.053a1.4 1.4 0 0 0 .678-.36 1.56 1.56 0 0 0 .295-.396c.088-.161.14-.308.155-.439h-.59c-.045.158-.12.297-.227.417-.187.207-.438.31-.751.31-.336 0-.584-.109-.744-.328-.16-.22-.246-.51-.257-.873h2.62c0-.36-.019-.622-.054-.787-.04-.24-.12-.45-.24-.63a1.36 1.36 0 0 0-.544-.463 1.63 1.63 0 0 0-.738-.178c-.503 0-.91.179-1.221.537-.311.358-.467.824-.467 1.398 0 .583.154 1.036.464 1.36.309.323.686.485 1.13.485zm1.05-2.199h-1.985c.012-.307.11-.56.297-.759a.914.914 0 0 1 .694-.298c.385 0 .66.144.825.433.089.156.145.364.17.624zm2.647 2.176c.416 0 .757-.11 1.024-.329.267-.219.434-.565.5-1.04h-.583c-.056.265-.157.474-.302.626-.146.153-.343.229-.592.229-.325 0-.563-.122-.715-.367-.15-.245-.226-.546-.226-.904 0-.356.053-.655.16-.898.164-.374.438-.56.82-.56.28 0 .484.072.611.218.127.146.208.329.244.549h.584c-.051-.478-.203-.815-.456-1.011-.252-.196-.58-.294-.982-.294-.472 0-.86.175-1.165.524-.305.35-.457.838-.457 1.465 0 .512.139.938.417 1.28.278.341.65.512 1.118.512zm2.966-.047c.087 0 .168-.004.242-.013a1.34 1.34 0 0 0 .215-.044v-.473a1.793 1.793 0 0 1-.21.01.539.539 0 0 1-.234-.037c-.084-.042-.126-.126-.126-.25v-2.333h.57v-.49h-.57v-.998h-.608v.998h-.483v.49h.483v2.366c0 .23.05.415.15.559.1.143.29.215.571.215zm5.045-.057c.841 0 1.434-.371 1.779-1.114.195-.42.293-.891.293-1.412 0-.674-.165-1.226-.497-1.658-.371-.478-.894-.717-1.568-.717h-1.985v4.901h1.978zm-.127-.567h-1.184v-3.764h1.178c.536 0 .925.168 1.166.504.241.336.362.808.362 1.415 0 .158-.017.33-.05.514-.058.309-.152.563-.284.76a1.218 1.218 0 0 1-.634.501c-.144.047-.329.07-.554.07zm4.368.694c.183 0 .346-.018.49-.053a1.4 1.4 0 0 0 .678-.36 1.56 1.56 0 0 0 .295-.396c.088-.161.14-.308.155-.439h-.59c-.045.158-.12.297-.227.417-.187.207-.437.31-.75.31-.337 0-.585-.109-.745-.328-.16-.22-.246-.51-.257-.873h2.62c0-.36-.018-.622-.054-.787-.04-.24-.12-.45-.24-.63a1.36 1.36 0 0 0-.544-.463 1.63 1.63 0 0 0-.737-.178c-.503 0-.91.179-1.222.537-.311.358-.467.824-.467 1.398 0 .583.155 1.036.464 1.36.31.323.686.485 1.131.485zm1.051-2.199h-1.985c.011-.307.11-.56.297-.759a.914.914 0 0 1 .694-.298c.385 0 .66.144.824.433.089.156.146.364.17.624zm2.906 2.186c.485 0 .865-.187 1.138-.56.274-.374.41-.844.41-1.409 0-.596-.138-1.047-.415-1.353-.277-.306-.638-.459-1.082-.459-.214 0-.412.045-.594.135-.183.09-.34.221-.47.393v-1.779h-.585v4.918h.554V34.1c.127.172.246.296.357.374.187.131.416.197.687.197zm-.036-.53c-.432 0-.727-.198-.884-.591-.085-.21-.127-.482-.127-.818 0-.465.103-.798.308-1a.994.994 0 0 1 .72-.304c.313 0 .55.123.712.37.161.247.242.558.242.934 0 .423-.08.763-.242 1.021-.161.258-.404.387-.73.387zm2.896-3.805v-.68h-.61v.68h.61zm0 4.221V31h-.61v3.557h.61zm1.748.057c.087 0 .168-.004.242-.013a1.34 1.34 0 0 0 .216-.044v-.473a1.793 1.793 0 0 1-.21.01.539.539 0 0 1-.234-.037c-.085-.042-.127-.126-.127-.25v-2.333h.57v-.49h-.57v-.998h-.607v.998h-.484v.49h.484v2.366c0 .23.05.415.15.559.1.143.29.215.57.215z"/></defs><g fill="none"><path fill="#243E90" stroke="#24408F" d="M53.98.5a2.236 2.236 0 0 1 1.449.74c.37.41.604.956.604 1.56v34.4a2.32 2.32 0 0 1-.68 1.61c-.41.418-.968.69-1.566.69H2.747c-.599 0-1.156-.272-1.566-.69A2.32 2.32 0 0 1 .5 37.2V2.44c.083-.483.325-.927.662-1.272.333-.34.76-.585 1.226-.668z"/><use fill="#000" xlink:href="#a"/><use fill="#FFF" xlink:href="#a"/><use fill="#000" xlink:href="#b"/><use fill="#FFCE08" xlink:href="#b"/><use fill="#000" xlink:href="#c"/><use fill="#FFF" xlink:href="#c"/><use fill="#000" xlink:href="#d"/><use fill="#FFF" xlink:href="#d"/><g fill="#FFCC05" transform="translate(20.613 2.533)"><path d="M10.24 2.8L10.8 4.533 9.307 3.467 7.84 4.533 8.4 2.8 6.933 1.733 8.747 1.733 9.307 0 9.867 1.733 11.707 1.733z"/><path d="M2.48 4.667L2.88 5.973 1.787 5.173 0.667 5.973 1.093 4.667 0 3.867 1.36 3.867 1.787 2.56 2.213 3.867 3.573 3.867z"/><path d="M29.867 19.84L30.987 23.307 28.053 21.173 25.093 23.307 26.24 19.84 23.28 17.707 26.933 17.707 28.053 14.213 29.173 17.707 32.827 17.707z"/><path d="M19.04 4.587L19.733 6.747 17.893 5.413 16.053 6.747 16.747 4.587 14.907 3.253 17.2 3.253 17.893 1.067 18.587 3.253 20.88 3.253z"/><path d="M26.453 9.707L27.28 12.293 25.067 10.693 22.853 12.293 23.707 9.707 21.493 8.08 24.24 8.08 25.067 5.493 25.92 8.08 28.667 8.08z"/></g></g></svg>