<svg xmlns="http://www.w3.org/2000/svg" xmlns:xlink="http://www.w3.org/1999/xlink" width="57" height="40" x="KIX_XX" y="KIX_YY" id="digiteal_direct"><defs><path id="a" d="M5.53 16.35c1.275 0 2.393-.285 3.356-.854.962-.57 1.443-1.516 1.443-2.839 0-1.062-.38-1.873-1.138-2.432-.44-.32-1.063-.572-1.871-.756l-1.676-.382c-1.127-.26-1.851-.477-2.171-.65-.488-.272-.732-.7-.732-1.286 0-.531.209-.998.626-1.399.418-.401 1.104-.602 2.058-.602 1.182 0 2.02.312 2.513.936.266.341.44.832.52 1.472H9.98c0-1.329-.437-2.295-1.313-2.9-.876-.604-1.94-.907-3.192-.907-1.361 0-2.413.345-3.156 1.033-.743.689-1.114 1.57-1.114 2.644 0 .992.38 1.737 1.138 2.236.44.288 1.188.55 2.245.79l1.619.365c.878.2 1.523.437 1.935.708.407.276.61.74.61 1.39 0 .868-.482 1.47-1.447 1.806a5.024 5.024 0 0 1-1.66.26c-1.355 0-2.301-.395-2.838-1.187-.282-.423-.442-.973-.48-1.651H.806c-.017 1.29.395 2.312 1.235 3.066.84.76 2.004 1.139 3.49 1.139z"/><path id="b" d="M16.38 16.31c1.35 0 2.423-.513 3.22-1.538.667-.851 1.06-1.906 1.18-3.164h-1.326c-.136.786-.342 1.42-.618 1.903-.526.917-1.29 1.375-2.294 1.375-1.09 0-1.909-.434-2.456-1.302-.331-.52-.561-1.135-.692-1.846h4.254l.342-1.155h-4.718a14.988 14.988 0 0 1 .016-1.285h4.36l.342-1.155H13.45c.147-.72.388-1.31.724-1.765.608-.83 1.407-1.244 2.4-1.244.807 0 1.436.225 1.886.675.45.45.749 1.06.895 1.83h1.326c-.076-1.014-.465-1.92-1.167-2.716-.702-.797-1.688-1.196-2.957-1.196-1.49 0-2.66.613-3.505 1.838-.504.727-.849 1.586-1.033 2.578h-1.724l-.342 1.155h1.936c-.011.2-.016.401-.016.602 0 .233.005.461.016.683h-1.594l-.342 1.155h2.05c.211 1.415.691 2.519 1.44 3.31.79.84 1.77 1.261 2.935 1.261z"/><path id="c" d="M21.868 16v-5.05h3.758c1.204 0 2.096-.346 2.676-1.038.58-.691.87-1.503.87-2.436 0-1.084-.325-1.926-.976-2.525-.65-.6-1.507-.899-2.57-.899H20.25V16h1.618zm3.221-6.417h-3.22v-4.14h3.22c.624 0 1.114.084 1.472.252.651.315.976.911.976 1.79 0 .78-.226 1.325-.679 1.634-.453.31-1.042.464-1.769.464zM30.612 16l1.293-3.579h4.725L37.842 16h1.773L35.28 4.052h-1.83L28.953 16h1.659zm5.498-4.896h-3.742l1.928-5.279 1.814 5.279z"/><path id="d" d="M5.562 34.683c.66 0 1.186-.21 1.575-.63.325-.35.516-.782.574-1.298h-.648c-.066.322-.167.582-.303.78-.256.376-.629.564-1.118.564-.532 0-.931-.178-1.2-.535-.268-.357-.402-.823-.402-1.397 0-.7.149-1.22.446-1.56.297-.339.687-.508 1.17-.508.395 0 .703.092.922.276.22.185.365.435.439.751h.647c-.038-.416-.228-.787-.57-1.114-.343-.327-.825-.49-1.445-.49-.728 0-1.298.25-1.712.753-.383.463-.574 1.056-.574 1.779 0 .952.255 1.656.764 2.112.387.345.865.517 1.435.517zm3.493-.127v-2.055c0-.254.082-.478.244-.672.162-.195.395-.292.697-.292a.897.897 0 0 1 .197.017v-.635a7.972 7.972 0 0 0-.193-.016.891.891 0 0 0-.63.258c-.183.173-.298.319-.345.44v-.618h-.57v3.573h.6zm3.054.127c.182 0 .345-.018.49-.053a1.4 1.4 0 0 0 .677-.36 1.56 1.56 0 0 0 .296-.396c.088-.161.14-.308.155-.439h-.59c-.045.158-.12.297-.228.417-.187.207-.437.31-.75.31-.336 0-.584-.109-.744-.328-.16-.22-.246-.51-.257-.873h2.619c0-.36-.018-.622-.053-.787-.04-.24-.12-.45-.24-.63a1.36 1.36 0 0 0-.545-.463 1.63 1.63 0 0 0-.737-.178c-.503 0-.91.179-1.221.537-.312.358-.467.824-.467 1.398 0 .583.154 1.036.463 1.36.31.323.687.485 1.132.485zm1.05-2.199h-1.985c.011-.307.11-.56.297-.759a.914.914 0 0 1 .694-.298c.385 0 .66.144.824.433.09.156.146.364.17.624zm2.573 2.2c.247 0 .466-.05.658-.148a1.3 1.3 0 0 0 .497-.477v.497h.54v-4.918h-.577v1.805a1.615 1.615 0 0 0-.364-.35 1.271 1.271 0 0 0-.687-.174c-.494 0-.874.191-1.14.573-.265.381-.398.832-.398 1.353 0 .556.145 1.001.437 1.336.291.335.636.502 1.034.502zm.187-.525c-.358 0-.618-.129-.78-.387-.163-.258-.244-.578-.244-.96 0-.45.094-.79.282-1.022a.903.903 0 0 1 .735-.347c.272 0 .5.109.684.326.185.216.277.55.277 1.002 0 .447-.09.79-.268 1.03-.18.239-.408.358-.686.358zm3.006-3.824v-.68h-.61v.68h.61zm0 4.221V31h-.61v3.557h.61zm1.749.057c.087 0 .167-.004.242-.013a1.34 1.34 0 0 0 .215-.044v-.473a1.793 1.793 0 0 1-.21.01.539.539 0 0 1-.234-.037c-.084-.042-.127-.126-.127-.25v-2.333h.571v-.49h-.57v-.998h-.608v.998h-.484v.49h.484v2.366c0 .23.05.415.15.559.1.143.29.215.57.215zm4.831-.057V30.24h1.652v-.584H23.18v.584h1.651v4.317h.674zm2.546 0v-2.055c0-.254.081-.478.244-.672.162-.195.395-.292.697-.292a.897.897 0 0 1 .197.017v-.635a7.972 7.972 0 0 0-.193-.016.891.891 0 0 0-.631.258c-.182.173-.297.319-.344.44v-.618h-.57v3.573h.6zm2.62.12c.275 0 .528-.058.757-.176.23-.118.405-.257.527-.417a.85.85 0 0 0 .104.33c.093.147.243.22.45.22.085 0 .151-.003.2-.01.05-.007.12-.023.214-.05v-.444a1.442 1.442 0 0 1-.197.02c-.082 0-.136-.019-.162-.056a.264.264 0 0 1-.038-.15v-2.06c0-.337-.13-.587-.39-.747-.263-.16-.605-.24-1.025-.24a1.76 1.76 0 0 0-.956.259c-.275.172-.418.478-.429.919h.56c.023-.185.07-.324.144-.417.132-.17.354-.254.668-.254.271 0 .48.046.625.139.146.092.219.24.219.445 0 .1-.013.177-.04.23-.047.098-.14.156-.277.174l-.958.12c-.336.042-.607.155-.814.337-.207.182-.31.44-.31.77 0 .303.105.555.315.757.21.2.481.301.813.301zm.14-.51a.705.705 0 0 1-.45-.15.495.495 0 0 1-.19-.41c0-.23.091-.397.276-.501.109-.062.273-.108.49-.137l.364-.047c.111-.013.225-.035.34-.066.116-.031.21-.07.284-.117v.484c0 .369-.167.635-.5.797a1.37 1.37 0 0 1-.614.147zm3.3.39v-1.872c0-.233.015-.413.045-.538a.884.884 0 0 1 .195-.366.902.902 0 0 1 .434-.293c.09-.03.208-.044.35-.044.28 0 .474.111.58.334.065.133.097.31.097.527v2.252h.611v-2.292c0-.36-.049-.637-.147-.83-.178-.354-.52-.531-1.027-.531-.232 0-.442.045-.631.136a1.6 1.6 0 0 0-.537.451v-.507h-.57v3.573h.6zm4.464.137c.494 0 .862-.115 1.103-.347.241-.231.362-.506.362-.824 0-.33-.117-.57-.35-.724-.147-.098-.436-.2-.868-.304l-.397-.096a1.384 1.384 0 0 1-.394-.147c-.153-.094-.23-.218-.23-.374 0-.142.058-.257.175-.344.117-.086.289-.13.516-.13.34 0 .58.08.717.237a.695.695 0 0 1 .144.37h.567a1.028 1.028 0 0 0-.217-.647c-.238-.316-.626-.474-1.165-.474-.411 0-.739.105-.982.314a1.03 1.03 0 0 0-.366.82c0 .288.13.512.388.675.144.093.369.178.674.253l.477.12c.255.065.427.122.514.17.135.08.203.198.203.351a.482.482 0 0 1-.254.449c-.169.097-.364.145-.587.145-.373 0-.636-.097-.787-.29-.083-.107-.133-.26-.15-.46h-.578c.016.355.134.654.356.895.221.242.598.362 1.13.362zm2.896-.137v-3.083h.601V31h-.594c0-.387.018-.627.054-.722.035-.094.144-.142.326-.142a1.968 1.968 0 0 1 .214.01v-.547a4.441 4.441 0 0 0-.254-.013c-.4 0-.67.102-.81.307-.078.115-.122.298-.13.547v.56h-.498v.474h.498v3.083h.593zm2.55.127c.182 0 .346-.018.49-.053a1.4 1.4 0 0 0 .678-.36 1.56 1.56 0 0 0 .295-.396c.088-.161.14-.308.155-.439h-.59c-.045.158-.12.297-.228.417-.186.207-.437.31-.75.31-.336 0-.584-.109-.744-.328-.16-.22-.246-.51-.257-.873h2.619c0-.36-.018-.622-.053-.787-.04-.24-.12-.45-.24-.63a1.36 1.36 0 0 0-.544-.463 1.63 1.63 0 0 0-.738-.178c-.503 0-.91.179-1.221.537-.312.358-.467.824-.467 1.398 0 .583.154 1.036.464 1.36.309.323.686.485 1.13.485zm1.05-2.199h-1.985c.012-.307.11-.56.297-.759a.914.914 0 0 1 .694-.298c.385 0 .66.144.825.433.089.156.145.364.17.624zm1.973 2.072v-2.055c0-.254.08-.478.243-.672.163-.195.395-.292.698-.292a.897.897 0 0 1 .197.017v-.635a7.972 7.972 0 0 0-.194-.016.891.891 0 0 0-.63.258c-.183.173-.298.319-.344.44v-.618h-.57v3.573h.6z"/></defs><g fill="none"><path fill="#FFF" stroke="#EAEAE9" d="M53.98.5a2.236 2.236 0 0 1 1.449.74c.37.41.604.956.604 1.56v34.4a2.32 2.32 0 0 1-.68 1.61c-.41.418-.968.69-1.566.69H2.747c-.599 0-1.156-.272-1.566-.69A2.32 2.32 0 0 1 .5 37.2V2.44c.083-.483.325-.927.662-1.272.333-.34.76-.585 1.226-.668z"/><g transform="translate(2.746 9.773)"><use fill="#000" xlink:href="#a"/><use fill="#243F8E" xlink:href="#a"/><use fill="#000" xlink:href="#b"/><use fill="#FFCE08" xlink:href="#b"/><use fill="#000" xlink:href="#c"/><use fill="#243F8E" xlink:href="#c"/></g><use fill="#000" xlink:href="#d"/><use fill="#243F8E" xlink:href="#d"/><g fill="#FFCC05" transform="translate(20.613 2.533)"><path d="M10.24 2.8L10.8 4.533 9.307 3.467 7.84 4.533 8.4 2.8 6.933 1.733 8.747 1.733 9.307 0 9.867 1.733 11.707 1.733z"/><path d="M2.48 4.667L2.88 5.973 1.787 5.173 0.667 5.973 1.093 4.667 0 3.867 1.36 3.867 1.787 2.56 2.213 3.867 3.573 3.867z"/><path d="M29.867 19.84L30.987 23.307 28.053 21.173 25.093 23.307 26.24 19.84 23.28 17.707 26.933 17.707 28.053 14.213 29.173 17.707 32.827 17.707z"/><path d="M19.04 4.587L19.733 6.747 17.893 5.413 16.053 6.747 16.747 4.587 14.907 3.253 17.2 3.253 17.893 1.067 18.587 3.253 20.88 3.253z"/><path d="M26.453 9.707L27.28 12.293 25.067 10.693 22.853 12.293 23.707 9.707 21.493 8.08 24.24 8.08 25.067 5.493 25.92 8.08 28.667 8.08z"/></g></g></svg>