<svg xmlns="http://www.w3.org/2000/svg" xmlns:xlink="http://www.w3.org/1999/xlink" width="55" height="40" x="KIX_XX" y="KIX_YY" id="ideal"><defs><path id="a" d="M0 0L25.013 0 25.013 21.653 0 21.653z"/><path id="c" d="M0 0L25.013 0 25.013 21.653 0 21.653z"/></defs><g fill="none" fill-rule="evenodd"><path fill="#EE6B8E" fill-rule="nonzero" d="M54.103 36.56c0 1.893-1.466 3.44-3.226 3.44H3.997C2.237 40 .77 38.453.77 36.56h.027V3.44C.797 1.547 2.237 0 4.023 0H50.85c1.787 0 3.227 1.547 3.227 3.44l.026 33.12z"/><g transform="translate(14.93 9.173)"><path fill="#FFF" fill-rule="nonzero" d="M.827 1.653h14.986a7.5 7.5 0 0 1 7.494 7.494v3.333a7.5 7.5 0 0 1-7.494 7.493H.827V1.653z"/><path fill="#0A0B09" fill-rule="nonzero" d="M2.507 19.147L6.667 19.147 6.667 12.48 2.507 12.48z"/><mask id="b" fill="#fff"><use xlink:href="#a"/></mask><path fill="#0A0B09" fill-rule="nonzero" d="M6.667 8.747c0 1.146-.934 2.08-2.08 2.08a2.083 2.083 0 0 1-2.08-2.08c0-1.147.933-2.08 2.08-2.08 1.146 0 2.08.933 2.08 2.08" mask="url(#b)"/><mask id="d" fill="#fff"><use xlink:href="#c"/></mask><path fill="#0A0B09" fill-rule="nonzero" d="M24.16 5.947c-.533-1.36-1.333-2.507-2.373-3.414C19.973.933 17.413.053 14.373 0H0v21.653h14.373c3.147-.053 5.627-.826 7.387-2.32 2.133-1.813 3.227-4.693 3.227-8.533.026-1.813-.267-3.44-.827-4.853zM14.08 20H1.68V1.653h12.4c2.72 0 5.013.747 6.587 2.107 1.786 1.573 2.693 3.947 2.693 7.04-.027 6.187-3.04 9.2-9.28 9.2z" mask="url(#d)"/><path fill="#B9215E" fill-rule="nonzero" d="M13.307 19.147h-4.96V3.333h4.96-.214c4.16 0 8.56 1.68 8.56 7.947 0 6.613-4.426 7.893-8.56 7.893h.214v-.026z"/><path fill="#FFFFFE" fill-rule="nonzero" d="M10.827 9.36c0-.107 0-.187-.027-.293a1.998 1.998 0 0 0-.107-.427v-.027a1.806 1.806 0 0 0-.373-.666l-.053-.054c-.054-.053-.08-.08-.134-.106a.558.558 0 0 0-.16-.107c-.053-.027-.106-.053-.133-.08-.027 0-.027 0-.053-.027-.027 0-.027 0-.054-.026-.133-.054-.293-.054-.506-.08H7.52v4.16h1.52c.293 0 .533-.027.693-.08.24-.08.427-.187.56-.32l.08-.08c.054-.054.08-.107.134-.16.026-.054.08-.107.106-.187v-.027c.027-.053.054-.133.08-.186.027-.027.027-.054.027-.107a.779.779 0 0 0 .053-.24c0-.053.027-.107.027-.16.027-.133.027-.293.027-.48.026-.08 0-.16 0-.24zm-1.734 1.467h-.08-.666V8.32h.346c.32 0 .534 0 .64.027.134.026.267.08.374.186.106.08.16.214.213.374.053.16.08.373.08.666 0 .294-.027.534-.08.694a.983.983 0 0 1-.213.373.608.608 0 0 1-.32.16c-.054.027-.134.027-.214.027h-.08z"/><path fill="#FFFFFE" fill-rule="nonzero" d="M10.693 8.4c-.08-.213-.213-.4-.373-.533a1.52 1.52 0 0 0-.587-.294 2.454 2.454 0 0 0-.506-.053c.213 0 .373.027.506.08.027 0 .027 0 .054.027.026 0 .026 0 .053.026.053.027.107.027.133.08a.558.558 0 0 1 .16.107c.054.027.107.08.134.107L10.32 8c.16.187.293.427.373.693.054.134.08.267.107.427 0 .08.027.187.027.293v-.16c.026-.373-.027-.64-.134-.853zm.134.96c0 .213-.054.4-.107.533a1.59 1.59 0 0 1-.427.587c-.133.107-.32.187-.56.267a2.83 2.83 0 0 1-.56.053h-.186-1.494v.827H9.04c.293 0 .533-.027.693-.08.24-.08.427-.187.56-.347.027-.027.054-.053.054-.08.053-.053.08-.107.133-.16.027-.053.08-.107.107-.187v-.026c.026-.054.053-.134.08-.187 0-.027.026-.08.026-.107a.779.779 0 0 0 .054-.24c0-.053.026-.106.026-.16.027-.133.027-.293.027-.48.053-.053.027-.133.027-.213z"/><path fill="#FFFFFE" fill-rule="nonzero" d="M11.68 11.653L11.68 7.493 14.107 7.493 14.107 8.187 12.347 8.187 12.347 9.12 13.973 9.12 13.973 9.84 12.347 9.84 12.347 10.96 14.16 10.96 14.16 11.653z"/><path fill="#FFFFFE" fill-rule="nonzero" d="M17.52 7.493h-.88l-1.6 4.16h.88l.347-.933h1.653l.373.933h.907l-1.68-4.16zM16.667 10l.4-1.68.426 1.68h-.826z"/><path fill="#FFFFFE" fill-rule="nonzero" d="M19.173 7.493L19.893 7.493 19.893 11.093 21.68 11.093 21.68 11.653 19.173 11.653z"/></g></g></svg>