<svg xmlns="http://www.w3.org/2000/svg" width="58" height="40" x="KIX_XX" y="KIX_YY" id="mastercard"><g fill="none"><path fill="#272A2D" d="M57.375 36.56a3.448 3.448 0 0 1-3.44 3.44H4.282a3.448 3.448 0 0 1-3.44-3.44h.027V3.44C.869 1.547 2.415 0 4.282 0h49.627a3.448 3.448 0 0 1 3.44 3.44l.026 33.12z"/><g transform="translate(10.122 8.693)"><path fill="#FF5F00" d="M24.107 20.293L13.867 20.293 13.867 2.427 24.107 2.427z"/><path fill="#E63727" d="M14.507 11.36c0-3.627 1.76-6.853 4.48-8.933C16.987.907 14.48 0 11.733 0 5.253 0 0 5.093 0 11.36c0 6.267 5.253 11.36 11.733 11.36 2.747 0 5.254-.907 7.254-2.427-2.72-2.08-4.48-5.306-4.48-8.933z"/><path fill="#FFAD34" d="M37.947 11.36c0 6.267-5.254 11.36-11.734 11.36-2.746 0-5.253-.907-7.253-2.427 2.72-2.08 4.48-5.306 4.48-8.933s-1.76-6.853-4.48-8.933C20.96.907 23.467 0 26.213 0c6.507 0 11.734 5.093 11.734 11.36z"/></g></g></svg>