<svg xmlns="http://www.w3.org/2000/svg" width="58" height="40" x="KIX_XX" y="KIX_YY" id="visa"><g fill="none"><path fill="#3570DE" d="M57.375 36.56a3.448 3.448 0 0 1-3.44 3.44H4.282a3.448 3.448 0 0 1-3.44-3.44h.027V3.44C.869 1.547 2.389 0 4.282 0h49.627a3.448 3.448 0 0 1 3.44 3.44l.026 33.12z"/><g fill="#FFF" transform="translate(10.842 14.227)"><path d="M15.84 11.36L12.88 11.36 14.72 0.213 17.68 0.213z"/><path d="M26.56.48A7.775 7.775 0 0 0 23.92 0c-2.933 0-4.987 1.52-4.987 3.68-.026 1.6 1.467 2.48 2.587 3.04 1.147.533 1.52.907 1.52 1.387 0 .746-.933 1.093-1.787 1.093-1.173 0-1.813-.187-2.773-.587l-.4-.186-.427 2.506c.694.32 1.974.587 3.307.587 3.093 0 5.12-1.493 5.147-3.813 0-1.28-.774-2.24-2.48-3.04-1.04-.507-1.68-.854-1.68-1.387 0-.48.533-.96 1.706-.96.96-.027 1.68.213 2.214.427l.266.106L26.56.48zm7.573-.267H31.84c-.693 0-1.227.214-1.547.934l-4.4 10.24h3.094l.613-1.68h3.787c.08.4.346 1.68.346 1.68h2.747L34.133.213zm-3.653 7.2l1.173-3.12s.24-.666.4-1.066l.214.96s.56 2.666.693 3.226h-2.48z"/><path d="M10.4.213l-2.88 7.6-.32-1.547C6.667 4.48 4.987 2.56 3.12 1.6l2.64 9.76h3.12L13.52.213H10.4z"/><path fill-opacity=".6" d="M4.827.213H.053L0 .426c3.707.934 6.16 3.147 7.173 5.84l-1.04-5.12C6 .426 5.467.24 4.827.213z"/></g></g></svg>