<svg enable-background="new 0 0 212 150" viewBox="0 0 212 150" xmlns="http://www.w3.org/2000/svg"><path d="m212 137.1c0 7.1-5.8 12.9-12.9 12.9h-186.2c-7.1 0-12.9-5.8-12.9-12.9v-124.2c0-7.1 5.8-12.9 12.9-12.9h186.2c7.1 0 12.9 5.8 12.9 12.9z" fill="#fff"/><path d="m170.3 41.9h-7.7-35.5-7.7l-5.2 5.9-16.7 18.9-5.2 5.9h-7.7-34.8-7.7l5.1-5.9 2.4-2.8 5.1-5.9h-7.7-9.9-5.5c-4.2 0-7.7 3.6-7.7 7.9v15.1 1.4c0 4.4 3.4 7.9 7.7 7.9h2.1 80.6 5.8c4.2 0 10-2.7 12.8-5.9l13.4-15.2z" fill="#004e91"/><path d="m180.5 24.1c4.2 0 7.7 3.6 7.7 7.9v16.7c0 4.4-3.4 7.9-7.7 7.9h-4.2-11.2-7.7l5.1-5.9 2.5-2.9 5.1-5.9h-50.8l-27 30.6h-50.5l36.2-41 1.4-1.6c2.9-3.2 8.6-5.9 12.9-5.9h1.7z" fill="#fd0"/><path d="m188.2 125.2v-2.4c0-.3-.2-.5-.7-.5h-1.5c-.5 0-.8-.1-.8-.3-.1-.2-.1-.6-.1-1.2v-9.1h2.5c.2 0 .3-.1.5-.2.1-.1.2-.3.2-.5v-2.5c0-.2-.1-.3-.2-.5-.1-.1-.3-.2-.5-.2h-2.6v-3.3c0-.2-.1-.3-.1-.4-.1-.1-.3-.1-.4-.1h-.1l-3.8.7c-.2.1-.3.1-.5.2-.1.1-.2.3-.2.4v2.5h-2.5c-.2 0-.3.1-.5.2s-.2.3-.2.5v2.1c0 .2.1.3.2.4s.3.2.5.3l2.5.4v9.1c0 1.1.1 2 .3 2.7.3.7.6 1.2 1 1.6.5.4 1 .7 1.6.8.7.1 1.4.2 2.3.2.5 0 .8 0 1.2-.1.3-.1.8-.1 1.2-.2.5-.1.7-.3.7-.6m-13.5-.3v-2.8c0-.2-.1-.3-.2-.4s-.3-.1-.4-.1h-.1c-.6.1-1.2.1-1.7.1-.5.1-1.2.1-2.1.1-.3 0-.7-.1-1-.2s-.6-.3-.8-.6c-.3-.3-.4-.7-.5-1.1-.1-.5-.2-1-.2-1.8v-2.6c0-.7.1-1.3.2-1.8s.3-.8.5-1.1c.3-.3.5-.5.8-.6s.7-.2 1-.2c.9 0 1.6 0 2.1.1s1.1.1 1.7.1h.1c.2 0 .3-.1.4-.1.1-.1.2-.2.2-.4v-2.8c0-.3-.1-.4-.1-.5-.1-.1-.3-.2-.5-.3-.5-.1-1-.2-1.7-.3s-1.5-.1-2.5-.1c-2.2 0-4 .7-5.3 2-1.3 1.4-2 3.3-2 5.9v2.6c0 2.5.7 4.6 2 5.9 1.3 1.4 3.1 2 5.3 2 .9 0 1.8-.1 2.5-.1.7-.1 1.3-.2 1.7-.3.3-.1.4-.1.5-.3.1.1.1-.1.1-.3m-20.4-3.3c-.4.2-.8.3-1.2.5-.5.1-.9.2-1.4.2-.7 0-1.2-.1-1.5-.3s-.5-.6-.5-1.3v-.3c0-.4.1-.7.1-1 .1-.3.3-.5.5-.7s.5-.3.8-.5c.3-.1.8-.1 1.4-.1h1.8zm5-7.7c0-1.2-.2-2.1-.5-2.9s-.8-1.4-1.4-2c-.7-.5-1.4-.9-2.3-1.1-.9-.3-2-.4-3.1-.4-1 0-2.1.1-3.1.2s-1.8.3-2.3.5c-.4.1-.6.3-.6.7v2.5c0 .2.1.3.1.5.1.1.3.1.4.1h.1c.3 0 .6-.1.9-.1.4 0 .8-.1 1.2-.1.5 0 1-.1 1.5-.1s1 0 1.5 0c.7 0 1.3.1 1.7.4s.7.8.7 1.8v1.1h-1.7c-2.7 0-4.7.4-5.9 1.2s-1.8 2.2-1.8 4v.3c0 1 .1 1.9.5 2.5.3.7.7 1.2 1.2 1.7.5.4 1 .7 1.7.9s1.3.3 2 .3c.9 0 1.8-.1 2.4-.4.7-.3 1.3-.6 2-1v.5c0 .2.1.3.2.5s.3.2.5.2h3.5c.2 0 .3-.1.5-.2.1-.1.2-.3.2-.5zm-16.7 11.3v-2.4c0-.3-.2-.5-.7-.5h-1.5c-.5 0-.8-.1-.8-.3-.1-.2-.1-.6-.1-1.2v-9.1h2.5c.2 0 .3-.1.5-.2s.2-.3.2-.5v-2.5c0-.2-.1-.3-.2-.5s-.3-.2-.5-.2h-2.5v-3.3c0-.2-.1-.3-.1-.4-.1-.1-.3-.1-.4-.1h-.1l-3.8.7c-.2.1-.3.1-.5.2-.1.1-.2.3-.2.4v2.5h-2.5c-.2 0-.3.1-.5.2s-.2.3-.2.5v2.1c0 .2.1.3.2.4s.3.2.5.3l2.5.4v9.1c0 1.1.1 2 .3 2.7.3.7.6 1.2 1 1.6s1 .7 1.6.8c.7.1 1.4.2 2.3.2.5 0 .8 0 1.2-.1.3-.1.8-.1 1.2-.2s.6-.3.6-.6m-13.7-.1v-10.4c0-1-.1-1.9-.3-2.8-.1-.8-.5-1.6-.8-2.3-.4-.7-1-1.2-1.7-1.5-.7-.4-1.6-.6-2.8-.6-1 0-1.9.1-2.7.4s-1.6.7-2.5 1.3v-.8c0-.2-.1-.3-.2-.5s-.3-.2-.5-.2h-3.4c-.2 0-.3.1-.5.2s-.2.3-.2.5v16.7c0 .2.1.3.2.5s.3.2.5.2h3.8c.2 0 .3-.1.5-.2s.2-.3.2-.5v-12.3c.5-.3 1-.5 1.6-.7.5-.2 1-.3 1.4-.3.5 0 .8.1 1.2.1.3.1.5.3.7.5.2.3.3.5.3.9.1.4.1.8.1 1.4v10.4c0 .2.1.3.2.5s.3.2.5.2h3.8c.2 0 .3-.1.5-.2.1-.1.1-.3.1-.5m-23.6-7.2c0 2.5-.9 3.8-2.8 3.8-.9 0-1.6-.3-2.1-1s-.7-1.6-.7-2.9v-2.2c0-1.3.3-2.2.7-2.9.5-.7 1.2-1 2.1-1 1.8 0 2.8 1.3 2.8 3.8zm5-2.2c0-1.2-.2-2.4-.5-3.4s-.8-1.8-1.5-2.5-1.5-1.2-2.5-1.6-2.1-.6-3.4-.6-2.4.2-3.4.6-1.8.9-2.5 1.6-1.2 1.6-1.5 2.5c-.3 1-.5 2.1-.5 3.4v2.2c0 1.2.2 2.4.5 3.4s.8 1.8 1.5 2.5 1.5 1.2 2.5 1.6 2.1.6 3.4.6 2.4-.2 3.4-.6 1.8-.9 2.5-1.6 1.2-1.6 1.5-2.5c.3-1 .5-2.1.5-3.4zm-17.4 9.2v-2.8c0-.2-.1-.3-.2-.4s-.3-.1-.5-.1h-.1c-.6.1-1.2.1-1.7.1s-1.2.1-2.1.1c-.3 0-.7-.1-1-.2s-.6-.3-.8-.6c-.3-.3-.4-.7-.5-1.1-.1-.5-.2-1-.2-1.8v-2.6c0-.7.1-1.3.2-1.8s.3-.8.5-1.1c.3-.3.5-.5.8-.6s.7-.2 1-.2c.9 0 1.6 0 2.1.1s1.1.1 1.7.1h.1c.2 0 .3-.1.5-.1.1-.1.2-.2.2-.4v-2.8c0-.3-.1-.4-.1-.5-.1-.1-.3-.2-.5-.3-.5-.1-1-.2-1.7-.3s-1.5-.1-2.5-.1c-2.2 0-4 .7-5.3 2-1.3 1.4-2 3.3-2 5.9v2.6c0 2.5.7 4.6 2 5.9 1.3 1.4 3.1 2 5.3 2 .9 0 1.8-.1 2.5-.1.7-.1 1.2-.2 1.7-.3.3-.1.4-.1.5-.3.1.1.1-.1.1-.3m-15.3.2v-10.4c0-1-.1-1.9-.3-2.8-.1-.8-.5-1.6-.8-2.3-.4-.7-1-1.2-1.7-1.5-.7-.4-1.6-.6-2.8-.6-1 0-1.9.1-2.7.4s-1.6.7-2.5 1.3v-.8c0-.2-.1-.3-.2-.5-.1-.1-.3-.2-.5-.2h-3.5c-.2 0-.3.1-.5.2s-.2.3-.2.5v16.7c0 .2.1.3.2.5.1.1.3.2.5.2h3.8c.2 0 .3-.1.5-.2s.2-.3.2-.5v-12.3c.5-.3 1-.5 1.6-.7.5-.2 1-.3 1.4-.3s.8.1 1.2.1c.3.1.5.3.7.5.2.3.3.5.3.9.1.4.1.8.1 1.4v10.4c0 .2.1.3.2.5.1.1.3.2.5.2h3.8c.2 0 .3-.1.5-.2 0-.1.2-.3.2-.5m-24.2-3.5c-.4.2-.8.3-1.2.5-.5.1-.9.2-1.4.2-.7 0-1.2-.1-1.5-.3s-.5-.6-.5-1.3v-.3c0-.4.1-.7.1-1s.3-.5.5-.7.5-.3.8-.5c.3-.1.8-.1 1.4-.1h1.8zm5-7.7c0-1.2-.2-2.1-.5-2.9s-.8-1.4-1.4-2c-.7-.5-1.4-.9-2.3-1.1-.9-.3-2-.4-3.1-.4-1 0-2.1.1-3.1.2s-1.8.3-2.3.5c-.4.1-.6.3-.6.7v2.5c0 .2.1.3.1.5.1.1.3.1.4.1h.1c.3 0 .6-.1.9-.1.4 0 .8-.1 1.3-.1s1-.1 1.5-.1 1 0 1.5 0c.7 0 1.3.1 1.7.4s.7.8.7 1.8v1.1h-1.7c-2.7 0-4.7.4-5.9 1.2s-1.8 2.2-1.8 4v.3c0 1 .1 1.9.5 2.5.3.7.7 1.2 1.2 1.7.5.4 1 .7 1.7.9s1.3.3 2 .3c.9 0 1.8-.1 2.4-.4.7-.3 1.3-.6 2-1v.5c0 .2.1.3.2.5.1.1.3.2.5.2h3.5c.2 0 .3-.1.5-.2s.2-.3.2-.5v-11.2h-.2zm-22.4 5c0 .8-.3 1.6-.9 2-.6.5-1.8.7-3.3.7h-.5c-.3 0-.5 0-.8 0s-.5 0-.8 0h-.5v-5.9h3.5c1.2 0 2.1.3 2.6.8.5.6.7 1.2.7 2zm-.1-9.3c0 .3-.1.7-.1 1-.1.3-.3.6-.5.8-.3.2-.6.4-1 .5s-.9.2-1.6.2h-3.5v-5.4h.5.7.7.5c1.6 0 2.7.2 3.4.6s1 1 1 1.9zm5.3 9c0-1.1-.3-2-.8-2.8s-1.2-1.4-2-1.8c.8-.4 1.5-1 2-1.8s.7-1.8.7-2.7v-.6c0-1.2-.3-2.3-.7-3.1-.5-.8-1.2-1.5-2-2s-1.9-.8-3.1-1.1c-1.2-.2-2.5-.3-4-.3-.5 0-1 0-1.6 0-.5 0-1 .1-1.6.1-.5 0-1 .1-1.4.1-.5.1-.8.1-1 .1-.6.1-1 .3-1.3.6s-.4.8-.4 1.5v19c0 .7.1 1.2.4 1.5s.7.5 1.3.6c.3.1.7.1 1.1.1.5.1.9.1 1.4.1s1 .1 1.6.1h1.6c1.4 0 2.7-.1 3.8-.3 1.2-.2 2.3-.6 3.1-1.1.9-.5 1.6-1.2 2.1-2.1s.8-2.1.8-3.4c0-.3 0-.7 0-.7z" fill="#004e91"/><path d="m0 0h211.9v150h-211.9z" fill="none"/></svg>