<svg enable-background="new 0 0 212 150" viewBox="0 0 212 150" xmlns="http://www.w3.org/2000/svg"><path d="m181 90.6c0 4.3-1.7 8.2-4.4 11-2.8 2.8-6.7 4.6-11.2 4.6h-53.1v-28.1c0 15.8-12.4 28.1-28.1 28.1h-25c-15.8 0-28.2-12.3-28.2-28.1v-9.4c0-15.7 12.4-28.1 28.1-28.1h25c15.7 0 28.1 15.5 28.1 31.3h-40.6v3.1h93.8c9 0 15.6 7 15.6 15.6z" fill="#3570de"/><path d="m181 56.2c0 4.3-1.7 8.2-4.4 11-2.8 2.8-6.7 4.6-11.2 4.6h-53.1v-31.2h53.1c9 0 15.6 7 15.6 15.6z" fill="#3570de"/><path d="m71.6 71.9h40.6c0-15.8-12.4-31.3-28.1-31.3h-25c-15.7 0-28.1 12.4-28.1 28.2v9.4c0 15.8 12.4 28.1 28.1 28.1h25c15.7 0 28.1-12.3 28.1-28.1v-3.2h-40.6zm93.8 3.1h-53.1v31.2h53.1c4.5 0 8.4-1.8 11.2-4.6s4.4-6.7 4.4-11c0-8.6-6.6-15.6-15.6-15.6zm0-34.4h-53.1v31.3h53.1c4.5 0 8.4-1.8 11.2-4.6s4.4-6.7 4.4-11c0-8.7-6.6-15.7-15.6-15.7z" fill="#fff"/><path d="m211.9 137.1v-124.2c0-7.1-5.8-12.9-12.9-12.9h-187c-6.6 0-12 5.4-12 12v125.1c0 7.1 5.8 12.9 12.9 12.9h186.3c7 0 12.8-5.8 12.7-12.9zm-46.5-62.1c9 0 15.6 7 15.6 15.6 0 4.3-1.7 8.2-4.4 11-2.8 2.8-6.7 4.6-11.2 4.6h-53.1v-28.1c0 15.8-12.4 28.1-28.1 28.1h-25c-15.8 0-28.2-12.3-28.2-28.1v-9.4c0-15.7 12.4-28.1 28.1-28.1h25c15.7 0 28.1 15.5 28.1 31.3v-31.3h53.1c9 0 15.6 7 15.6 15.6 0 4.3-1.7 8.2-4.4 11-2.8 2.8-6.7 4.6-11.2 4.6h-93.7v3.2z" fill="#3570de"/></svg>