<svg xmlns="http://www.w3.org/2000/svg" xmlns:xlink="http://www.w3.org/1999/xlink" width="57" height="40" viewBox="0 0 57 40">
  <defs>
    <path id="digiteal_direct-a" d="M5.53057813,16.3497277 C6.80477995,16.3497277 7.92309538,16.0650656 8.88552441,15.4957414 C9.84795345,14.9264172 10.329168,13.9802546 10.329168,12.6572535 C10.329168,11.594515 9.94961849,10.7839057 9.19051953,10.2254258 C8.75132656,9.90551979 8.12778099,9.65339049 7.31988281,9.46903789 L7.31988281,9.46903789 L5.64444297,9.08677734 C4.5166388,8.82651484 3.79278372,8.60962943 3.47287773,8.43612109 C2.98488555,8.16501432 2.74088945,7.73666563 2.74088945,7.151075 C2.74088945,6.61970573 2.94964167,6.15340208 3.36714609,5.75216406 C3.78465052,5.35092604 4.47055065,5.15030703 5.42484648,5.15030703 C6.60687201,5.15030703 7.44459193,5.46207982 7.93800625,6.08562539 C8.20369089,6.42721992 8.37719922,6.91792318 8.45853125,7.55773516 L8.45853125,7.55773516 L9.97944023,7.55773516 C9.97944023,6.22931198 9.5416028,5.26281634 8.66592793,4.65824824 C7.79025306,4.05368014 6.72615898,3.75139609 5.4736457,3.75139609 C4.11268971,3.75139609 3.06079544,4.09570169 2.31796289,4.78431289 C1.57513034,5.47292409 1.20371406,6.35402109 1.20371406,7.42760391 C1.20371406,8.41985469 1.58326354,9.16539831 2.3423625,9.66423477 C2.78155547,9.95160794 3.52981016,10.2145815 4.58712656,10.4531555 L4.58712656,10.4531555 L6.20563398,10.8191496 C7.08401992,11.0197686 7.72925404,11.2556315 8.14133633,11.5267383 C8.54799648,11.8032672 8.75132656,12.2668598 8.75132656,12.917516 C8.75132656,13.7850577 8.26875651,14.3869147 7.30361641,14.7230871 C6.80477995,14.8965954 6.25172214,14.9833496 5.64444297,14.9833496 C4.28890911,14.9833496 3.34274648,14.5875337 2.80595508,13.795902 C2.52400404,13.3729754 2.36405104,12.8226286 2.32609609,12.1448617 L2.32609609,12.1448617 L0.805187109,12.1448617 C0.788920703,13.4353299 1.20100299,14.4574025 2.04143398,15.2110793 C2.88186497,15.9701783 4.04491302,16.3497277 5.53057813,16.3497277 Z"/>
    <path id="digiteal_direct-b" d="M16.3793513,16.3090617 C17.729463,16.3090617 18.8030458,15.7966699 19.6000997,14.7718863 C20.2670224,13.9206111 20.6601272,12.8660057 20.7794142,11.6080703 L20.7794142,11.6080703 L19.4537021,11.6080703 C19.3181487,12.3942799 19.1121076,13.0286698 18.8355786,13.5112398 C18.3096315,14.4275807 17.5451104,14.8857512 16.5420154,14.8857512 C15.4521661,14.8857512 14.6334237,14.4519803 14.085788,13.5844387 C13.7550378,13.0639137 13.524597,12.4485013 13.3944658,11.7382016 L13.3944658,11.7382016 L17.648131,11.7382016 L17.9897255,10.5832867 L13.2724677,10.5832867 C13.2670456,10.4531555 13.2643345,10.3176021 13.2643345,10.1766266 C13.2643345,9.86756484 13.2724677,9.57476953 13.2887341,9.29824063 L13.2887341,9.29824063 L17.648131,9.29824063 L17.9897255,8.14332578 L13.4513982,8.14332578 C13.5977958,7.42218177 13.8390809,6.83388008 14.1752533,6.3784207 C14.7825324,5.54883398 15.5822974,5.13404062 16.5745482,5.13404062 C17.3824464,5.13404062 18.0114141,5.35905924 18.4614513,5.80909648 C18.9114885,6.25913372 19.209706,6.86912396 19.3561036,7.63906719 L19.3561036,7.63906719 L20.6818158,7.63906719 C20.6059059,6.62512786 20.2168676,5.71963125 19.5147011,4.92257734 C18.8125346,4.12552344 17.8270615,3.72699648 16.5582818,3.72699648 C15.0671945,3.72699648 13.8987243,4.33969779 13.0528712,5.56510039 C12.5486126,6.29166654 12.204307,7.151075 12.0199544,8.14332578 L12.0199544,8.14332578 L10.2957154,8.14332578 L9.95412083,9.29824063 L11.8898232,9.29824063 C11.8789789,9.49885964 11.8735568,9.69947865 11.8735568,9.90009766 C11.8735568,10.1332495 11.8789789,10.3609792 11.8898232,10.5832867 L11.8898232,10.5832867 L10.2957154,10.5832867 L9.95412083,11.7382016 L12.003688,11.7382016 C12.2151513,13.1533789 12.6950103,14.2567835 13.443265,15.0484152 C14.2348967,15.8888462 15.2135922,16.3090617 16.3793513,16.3090617 Z"/>
    <path id="digiteal_direct-c" d="M21.8684846,16 L21.8684846,10.9492809 L25.6260245,10.9492809 C26.8297385,10.9492809 27.7216798,10.6036197 28.3018483,9.91229746 C28.8820168,9.2209752 29.172101,8.40901042 29.172101,7.47640312 C29.172101,6.39197604 28.8467729,5.55018952 28.1961167,4.95104355 C27.5454604,4.35189759 26.688763,4.05232461 25.6260245,4.05232461 L25.6260245,4.05232461 L20.2499772,4.05232461 L20.2499772,16 L21.8684846,16 Z M25.0892331,9.58290273 L21.8684846,9.58290273 L21.8684846,5.44310234 L25.0892331,5.44310234 C25.7127786,5.44310234 26.2034819,5.52714544 26.5613428,5.69523164 C27.2119991,6.00971549 27.5373272,6.60615039 27.5373272,7.48453633 C27.5373272,8.26532383 27.3109531,8.81024844 26.8582048,9.11931016 C26.4054564,9.42837187 25.8157992,9.58290273 25.0892331,9.58290273 L25.0892331,9.58290273 Z M30.611678,16 L31.9048573,12.4213906 L36.6302483,12.4213906 L37.8420956,16 L39.6151339,16 L35.2801366,4.05232461 L33.4501659,4.05232461 L28.9525046,16 L30.611678,16 Z M36.1097233,11.1038117 L32.3684499,11.1038117 L34.296019,5.82536289 L36.1097233,11.1038117 Z"/>
    <path id="digiteal_direct-d" d="M5.56195617,34.6831677 C6.22262133,34.6831677 6.74759431,34.472956 7.13687513,34.0525327 C7.46164655,33.7032922 7.65295027,33.2706344 7.71078628,32.7545593 L7.71078628,32.7545593 L7.06346789,32.7545593 C6.99673404,33.0771062 6.89552102,33.3373683 6.75982885,33.5353454 C6.50401575,33.9112794 6.13141839,34.0992464 5.6420368,34.0992464 C5.11039043,34.0992464 4.71054342,33.9207334 4.44249577,33.5637073 C4.17444812,33.2066811 4.0404243,32.7412125 4.0404243,32.1673014 C4.0404243,31.4665959 4.18890712,30.9466279 4.48587277,30.6073975 C4.78283842,30.2681671 5.17267536,30.0985519 5.65538357,30.0985519 C6.05133777,30.0985519 6.35886961,30.190867 6.5779791,30.3754974 C6.79708859,30.5601277 6.94334695,30.8103797 7.01675419,31.1262532 L7.01675419,31.1262532 L7.66407258,31.1262532 C7.62625673,30.7102789 7.43606524,30.3387938 7.09349812,30.0117979 C6.75093101,29.684802 6.26933503,29.521304 5.64871018,29.521304 C4.92131117,29.521304 4.35073672,29.7726682 3.93698682,30.2753966 C3.55437939,30.7380846 3.36307568,31.3309037 3.36307568,32.0538538 C3.36307568,33.0059235 3.61777655,33.7099656 4.12717831,34.1659803 C4.51423466,34.5107719 4.99249395,34.6831677 5.56195617,34.6831677 Z M9.05547344,34.5563733 L9.05547344,32.5009706 C9.05547344,32.247382 9.13666629,32.0232675 9.29905201,31.828627 C9.46143772,31.6339866 9.69389398,31.5366664 9.99642078,31.5366664 C10.0320122,31.5366664 10.064823,31.5377787 10.0948532,31.5400031 C10.1248835,31.5422276 10.1576943,31.5466765 10.1932857,31.5533499 L10.1932857,31.5533499 L10.1932857,30.9193783 C10.1287763,30.9127049 10.0831748,30.908256 10.0564812,30.9060315 C10.0297877,30.903807 10.0108798,30.9026948 9.99975747,30.9026948 C9.76174006,30.9026948 9.55152842,30.9888927 9.36912255,31.1612885 C9.18671668,31.3336843 9.0721569,31.4799427 9.0254432,31.6000636 L9.0254432,31.6000636 L9.0254432,30.9827754 L8.45486875,30.9827754 L8.45486875,34.5563733 L9.05547344,34.5563733 Z M12.1085473,34.6831677 C12.2909531,34.6831677 12.4544511,34.665372 12.5990411,34.6297806 C12.868201,34.5674956 13.0939838,34.4473747 13.2763897,34.2694178 C13.3853883,34.1670925 13.4838208,34.0352932 13.571687,33.8740197 C13.6595533,33.7127462 13.711272,33.5664878 13.7268432,33.4352446 L13.7268432,33.4352446 L13.1362486,33.4352446 C13.0917594,33.5931814 13.0161277,33.7322102 12.9093535,33.8523312 C12.7224987,34.0592061 12.4722468,34.1626436 12.1585977,34.1626436 C11.8227039,34.1626436 11.5746764,34.0530888 11.4145152,33.8339794 C11.2543539,33.6148699 11.1687122,33.3240215 11.1575898,32.9614342 L11.1575898,32.9614342 L13.7768936,32.9614342 C13.7768936,32.6010714 13.7590979,32.3385849 13.7235065,32.1739747 C13.6834662,31.9337329 13.6033856,31.7235212 13.4832647,31.5433398 C13.3586948,31.3542606 13.1774012,31.2002166 12.9393837,31.0812079 C12.7013663,30.9621992 12.4555633,30.9026948 12.2019747,30.9026948 C11.6992463,30.9026948 11.2921698,31.081764 10.9807451,31.4399023 C10.6693205,31.7980407 10.5136082,32.2640654 10.5136082,32.8379766 C10.5136082,33.4207856 10.6682082,33.8740197 10.9774084,34.1976789 C11.2866086,34.5213381 11.6636549,34.6831677 12.1085473,34.6831677 Z M13.1596055,32.4842872 L11.1742733,32.4842872 C11.1853956,32.1773114 11.2843842,31.9242789 11.471239,31.7251896 C11.6580937,31.5261002 11.8894378,31.4265556 12.165271,31.4265556 C12.5501029,31.4265556 12.824824,31.5711456 12.9894341,31.8603256 C13.0784126,32.016038 13.1351364,32.2240251 13.1596055,32.4842872 L13.1596055,32.4842872 Z M15.7321955,34.6831677 C15.9791108,34.6831677 16.1982203,34.6342295 16.389524,34.5363532 C16.5808277,34.4384769 16.7465501,34.2794278 16.8866912,34.0592061 L16.8866912,34.0592061 L16.8866912,34.5563733 L17.4272354,34.5563733 L17.4272354,29.6380883 L16.8499876,29.6380883 L16.8499876,31.443239 C16.7142954,31.2764044 16.5930623,31.1596202 16.4862881,31.0928863 C16.3016578,30.9772143 16.0725382,30.9193783 15.7989294,30.9193783 C15.3050989,30.9193783 14.925272,31.1101259 14.6594488,31.4916211 C14.3936257,31.8731163 14.2607141,32.3241259 14.2607141,32.84465 C14.2607141,33.4007654 14.4064163,33.8462139 14.6978208,34.1809954 C14.9892253,34.5157769 15.3340169,34.6831677 15.7321955,34.6831677 Z M15.9190503,34.1593069 C15.560912,34.1593069 15.30065,34.0302881 15.1382642,33.7722505 C14.9758785,33.514213 14.8946857,33.1938905 14.8946857,32.811283 C14.8946857,32.3619418 14.9886692,32.0215991 15.1766362,31.7902551 C15.3646032,31.5589111 15.6098501,31.443239 15.912377,31.443239 C16.1837613,31.443239 16.4117686,31.5516815 16.596399,31.7685666 C16.7810293,31.9854516 16.8733445,32.319677 16.8733445,32.7712427 C16.8733445,33.2183596 16.7838099,33.5614828 16.6047407,33.8006124 C16.4256715,34.0397421 16.1971081,34.1593069 15.9190503,34.1593069 Z M18.9254105,30.3354571 L18.9254105,29.6547717 L18.3147957,29.6547717 L18.3147957,30.3354571 L18.9254105,30.3354571 Z M18.9254105,34.5563733 L18.9254105,30.9994589 L18.3147957,30.9994589 L18.3147957,34.5563733 L18.9254105,34.5563733 Z M20.6738374,34.6130971 C20.7605915,34.6130971 20.8412282,34.6086482 20.9157477,34.5997503 C20.9902671,34.5908525 21.062006,34.5763935 21.1309643,34.5563733 L21.1309643,34.5563733 L21.1309643,34.082563 C21.0864751,34.0870119 21.047547,34.0897925 21.0141801,34.0909047 C20.9808132,34.0920169 20.9496707,34.092573 20.9207527,34.092573 C20.8117541,34.092573 20.7338979,34.0803385 20.6871842,34.0558694 C20.6026547,34.0136047 20.5603899,33.9301873 20.5603899,33.8056175 L20.5603899,33.8056175 L20.5603899,31.4732693 L21.1309643,31.4732693 L21.1309643,30.9827754 L20.5603899,30.9827754 L20.5603899,29.9851043 L19.9531118,29.9851043 L19.9531118,30.9827754 L19.4692914,30.9827754 L19.4692914,31.4732693 L19.9531118,31.4732693 L19.9531118,33.8389844 C19.9531118,34.068104 20.0031622,34.2544026 20.103263,34.3978804 C20.2033638,34.5413582 20.3935553,34.6130971 20.6738374,34.6130971 Z M25.5053685,34.5563733 L25.5053685,30.238693 L27.1570314,30.238693 L27.1570314,29.6547717 L23.1796937,29.6547717 L23.1796937,30.238693 L24.8313566,30.238693 L24.8313566,34.5563733 L25.5053685,34.5563733 Z M28.051265,34.5563733 L28.051265,32.5009706 C28.051265,32.247382 28.1324579,32.0232675 28.2948436,31.828627 C28.4572293,31.6339866 28.6896856,31.5366664 28.9922124,31.5366664 C29.0278038,31.5366664 29.0606146,31.5377787 29.0906448,31.5400031 C29.120675,31.5422276 29.1534859,31.5466765 29.1890772,31.5533499 L29.1890772,31.5533499 L29.1890772,30.9193783 C29.1245678,30.9127049 29.0789664,30.908256 29.0522728,30.9060315 C29.0255793,30.903807 29.0066714,30.9026948 28.9955491,30.9026948 C28.7575316,30.9026948 28.54732,30.9888927 28.3649141,31.1612885 C28.1825083,31.3336843 28.0679485,31.4799427 28.0212348,31.6000636 L28.0212348,31.6000636 L28.0212348,30.9827754 L27.4506603,30.9827754 L27.4506603,34.5563733 L28.051265,34.5563733 Z M30.6705688,34.6764943 C30.9464021,34.6764943 31.1988785,34.617546 31.427998,34.4996496 C31.6571176,34.3817531 31.8328501,34.2427242 31.9551955,34.082563 C31.9752157,34.2249285 32.0096948,34.3350394 32.058633,34.4128955 C32.1520604,34.55971 32.3022115,34.6331173 32.5090865,34.6331173 C32.593616,34.6331173 32.6603499,34.6297806 32.709288,34.6231072 C32.7582262,34.6164338 32.829409,34.5997503 32.9228364,34.5730568 L32.9228364,34.5730568 L32.9228364,34.1292767 C32.8850205,34.1359501 32.8494291,34.1409551 32.8160622,34.1442918 C32.7826953,34.1476285 32.7526651,34.1492968 32.7259715,34.1492968 C32.6436664,34.1492968 32.5897232,34.1303889 32.5641419,34.092573 C32.5385606,34.0547572 32.5257699,34.0047068 32.5257699,33.9424219 L32.5257699,33.9424219 L32.5257699,31.8836825 C32.5257699,31.5455643 32.3956389,31.2964246 32.1353769,31.1362633 C31.8728904,30.9761021 31.5314355,30.8960214 31.1110122,30.8960214 C30.748425,30.8960214 30.4297708,30.9822193 30.1550498,31.1546151 C29.8803287,31.3270109 29.7374071,31.6334305 29.7262848,32.073874 L29.7262848,32.073874 L30.2868491,32.073874 C30.3090938,31.8892436 30.3569197,31.7502148 30.4303269,31.6567874 C30.5615702,31.4877283 30.7840164,31.4031987 31.0976655,31.4031987 C31.3690498,31.4031987 31.5775931,31.4493563 31.7232954,31.5416715 C31.8689976,31.6339866 31.9418487,31.7824695 31.9418487,31.9871199 C31.9418487,32.0872207 31.928502,32.1639647 31.9018084,32.2173517 C31.8550947,32.3152281 31.7627795,32.3730641 31.6248629,32.3908598 L31.6248629,32.3908598 L30.6672321,32.5109807 C30.3313384,32.5532455 30.059954,32.6655808 29.8530791,32.8479867 C29.6462041,33.0303925 29.5427667,33.2873179 29.5427667,33.6187627 C29.5427667,33.9212895 29.6478725,34.1732098 29.8580841,34.3745236 C30.0682958,34.5758374 30.339124,34.6764943 30.6705688,34.6764943 Z M30.8107099,34.1659803 C30.6372019,34.1659803 30.4870507,34.1159299 30.3602564,34.0158291 C30.2334621,33.9157283 30.1700649,33.7789239 30.1700649,33.6054159 C30.1700649,33.3762963 30.2623801,33.2094617 30.4470104,33.104912 C30.556009,33.0426271 30.719507,32.9970256 30.9375042,32.9681076 L30.9375042,32.9681076 L31.3012037,32.9213939 C31.4124268,32.9080471 31.5258744,32.8858025 31.6415464,32.8546601 C31.7572184,32.8235176 31.851758,32.7845895 31.9251653,32.7378758 L31.9251653,32.7378758 L31.9251653,33.2216963 C31.9251653,33.5909569 31.7583306,33.8567801 31.4246614,34.0191658 C31.2266843,34.1170421 31.0220338,34.1659803 30.8107099,34.1659803 Z M34.110699,34.5563733 L34.110699,32.6844887 C34.110699,32.4509202 34.1257141,32.2712949 34.1557443,32.1456129 C34.1857746,32.0199308 34.2508401,31.8981415 34.3509409,31.780245 C34.4755107,31.6334305 34.6201007,31.5355542 34.7847109,31.486616 C34.8759138,31.457698 34.9926981,31.443239 35.1350636,31.443239 C35.4153458,31.443239 35.608874,31.5544621 35.7156482,31.7769083 C35.7801576,31.910376 35.8124123,32.0861085 35.8124123,32.3041058 L35.8124123,32.3041058 L35.8124123,34.5563733 L36.423027,34.5563733 L36.423027,32.2640654 C36.423027,31.9037026 36.3740889,31.6267571 36.2762126,31.433229 C36.0982556,31.0795395 35.7556885,30.9026948 35.2485112,30.9026948 C35.0171672,30.9026948 34.8069555,30.9482963 34.6178763,31.0394992 C34.428797,31.1307022 34.2497278,31.2808533 34.0806687,31.4899527 L34.0806687,31.4899527 L34.0806687,30.9827754 L33.5100943,30.9827754 L33.5100943,34.5563733 L34.110699,34.5563733 Z M38.5751938,34.6931777 C39.0690243,34.6931777 39.4366167,34.5775057 39.6779708,34.3461617 C39.9193249,34.1148177 40.0400019,33.8400966 40.0400019,33.5219986 C40.0400019,33.1927782 39.9232177,32.9514241 39.6896492,32.7979363 C39.5428347,32.70006 39.2536547,32.5988469 38.8221091,32.4942972 L38.8221091,32.4942972 L38.4250427,32.3975332 C38.2515346,32.3552684 38.1202914,32.3063302 38.0313129,32.2507187 C37.8778251,32.1572913 37.8010811,32.0327214 37.8010811,31.8770091 C37.8010811,31.7346435 37.8594732,31.6200838 37.9762575,31.5333297 C38.0930417,31.4465757 38.2648814,31.4031987 38.4917765,31.4031987 C38.8321192,31.4031987 39.0712488,31.4821671 39.2091654,31.6401039 C39.293695,31.751327 39.3415209,31.8747846 39.3526432,32.0104768 L39.3526432,32.0104768 L39.919881,32.0104768 C39.9243299,31.7791328 39.8520349,31.56336 39.702996,31.3631584 C39.4649786,31.0472848 39.07681,30.889348 38.5384902,30.889348 C38.1269648,30.889348 37.7994128,30.9938978 37.5558342,31.2029972 C37.3122556,31.4120966 37.1904664,31.6857054 37.1904664,32.0238236 C37.1904664,32.3107791 37.3194851,32.5354498 37.5775227,32.6978355 C37.7221127,32.7912629 37.9467834,32.8757924 38.2515346,32.9514241 L38.2515346,32.9514241 L38.7286817,33.0715451 C38.9844948,33.1360545 39.1557784,33.1927782 39.2425324,33.2417164 C39.3782245,33.321797 39.4460706,33.4385813 39.4460706,33.5920691 C39.4460706,33.7944952 39.3615411,33.9440902 39.192482,34.0408543 C39.0234229,34.1376184 38.8276702,34.1860004 38.6052241,34.1860004 C38.2315145,34.1860004 37.969028,34.0892364 37.8177646,33.8957082 C37.7354595,33.788934 37.6854091,33.6354461 37.6676134,33.4352446 L37.6676134,33.4352446 L37.0903656,33.4352446 C37.1059368,33.7911585 37.2243894,34.0897925 37.4457233,34.3311466 C37.6670573,34.5725007 38.0435475,34.6931777 38.5751938,34.6931777 Z M41.4714431,34.5563733 L41.4714431,31.4732693 L42.0720478,31.4732693 L42.0720478,30.9994589 L41.4781165,30.9994589 C41.4781165,30.6124026 41.4959122,30.3716046 41.5315036,30.2770649 C41.567095,30.1825253 41.6760936,30.1352555 41.8584995,30.1352555 C41.8829685,30.1352555 41.909106,30.1358116 41.9369117,30.1369238 C41.9647175,30.1380361 42.0097629,30.1408166 42.0720478,30.1452656 L42.0720478,30.1452656 L42.0720478,29.598048 C42.0208852,29.593599 41.9752837,29.5902624 41.9352434,29.5880379 C41.8952031,29.5858134 41.856275,29.5847012 41.8184591,29.5847012 C41.418056,29.5847012 41.1477839,29.6870264 41.0076428,29.8916769 C40.9297866,30.0073489 40.8864096,30.1897548 40.8775118,30.4388945 L40.8775118,30.4388945 L40.8775118,30.9994589 L40.3803446,30.9994589 L40.3803446,31.4732693 L40.8775118,31.4732693 L40.8775118,34.5563733 L41.4714431,34.5563733 Z M44.0206763,34.6831677 C44.2030822,34.6831677 44.3665801,34.665372 44.5111702,34.6297806 C44.78033,34.5674956 45.0061129,34.4473747 45.1885188,34.2694178 C45.2975174,34.1670925 45.3959498,34.0352932 45.4838161,33.8740197 C45.5716823,33.7127462 45.6234011,33.5664878 45.6389723,33.4352446 L45.6389723,33.4352446 L45.0483777,33.4352446 C45.0038884,33.5931814 44.9282567,33.7322102 44.8214826,33.8523312 C44.6346278,34.0592061 44.3843758,34.1626436 44.0707267,34.1626436 C43.734833,34.1626436 43.4868055,34.0530888 43.3266442,33.8339794 C43.166483,33.6148699 43.0808412,33.3240215 43.0697189,32.9614342 L43.0697189,32.9614342 L45.6890227,32.9614342 C45.6890227,32.6010714 45.671227,32.3385849 45.6356356,32.1739747 C45.5955953,31.9337329 45.5155147,31.7235212 45.3953937,31.5433398 C45.2708239,31.3542606 45.0895302,31.2002166 44.8515128,31.0812079 C44.6134954,30.9621992 44.3676924,30.9026948 44.1141037,30.9026948 C43.6113754,30.9026948 43.2042988,31.081764 42.8928742,31.4399023 C42.5814495,31.7980407 42.4257372,32.2640654 42.4257372,32.8379766 C42.4257372,33.4207856 42.5803373,33.8740197 42.8895375,34.1976789 C43.1987377,34.5213381 43.575784,34.6831677 44.0206763,34.6831677 Z M45.0717345,32.4842872 L43.0864024,32.4842872 C43.0975247,32.1773114 43.1965132,31.9242789 43.383368,31.7251896 C43.5702228,31.5261002 43.8015668,31.4265556 44.0774001,31.4265556 C44.462232,31.4265556 44.736953,31.5711456 44.9015632,31.8603256 C44.9905417,32.016038 45.0472655,32.2240251 45.0717345,32.4842872 L45.0717345,32.4842872 Z M47.0437199,34.5563733 L47.0437199,32.5009706 C47.0437199,32.247382 47.1249128,32.0232675 47.2872985,31.828627 C47.4496842,31.6339866 47.6821405,31.5366664 47.9846673,31.5366664 C48.0202587,31.5366664 48.0530695,31.5377787 48.0830997,31.5400031 C48.1131299,31.5422276 48.1459407,31.5466765 48.1815321,31.5533499 L48.1815321,31.5533499 L48.1815321,30.9193783 C48.1170227,30.9127049 48.0714213,30.908256 48.0447277,30.9060315 C48.0180342,30.903807 47.9991263,30.9026948 47.988004,30.9026948 C47.7499865,30.9026948 47.5397749,30.9888927 47.357369,31.1612885 C47.1749632,31.3336843 47.0604034,31.4799427 47.0136897,31.6000636 L47.0136897,31.6000636 L47.0136897,30.9827754 L46.4431152,30.9827754 L46.4431152,34.5563733 L47.0437199,34.5563733 Z"/>
  </defs>
  <g fill="none">
    <path fill="#FFF" stroke="#EAEAE9" d="M53.9793473,0.5 C54.5373022,0.548863266 55.0535588,0.825724178 55.4290261,1.24071437 C55.7993106,1.64997613 56.0333333,2.1956493 56.0333333,2.8 L56.0333333,2.8 L56.0333333,37.2 C56.0333333,37.8145743 55.7662608,38.388642 55.3526057,38.8103292 C54.9427381,39.2281554 54.3853005,39.5 53.7866667,39.5 L53.7866667,39.5 L2.74666667,39.5 C2.14803286,39.5 1.59059527,39.2281554 1.18072768,38.8103292 C0.767072534,38.388642 0.5,37.8145743 0.5,37.2 L0.5,37.2 L0.5,2.44063453 C0.583444087,1.95706335 0.825075105,1.51295049 1.16214813,1.16821672 C1.49471716,0.828089295 1.92172909,0.583111522 2.38838974,0.5 L2.38838974,0.5 Z"/>
    <g transform="translate(2.746 9.773)">
      <use fill="#000" xlink:href="#digiteal_direct-a"/>
      <use fill="#243F8E" xlink:href="#digiteal_direct-a"/>
      <use fill="#000" xlink:href="#digiteal_direct-b"/>
      <use fill="#FFCE08" xlink:href="#digiteal_direct-b"/>
      <use fill="#000" xlink:href="#digiteal_direct-c"/>
      <use fill="#243F8E" xlink:href="#digiteal_direct-c"/>
    </g>
    <use fill="#000" xlink:href="#digiteal_direct-d"/>
    <use fill="#243F8E" xlink:href="#digiteal_direct-d"/>
    <g fill="#FFCC05" transform="translate(20.613 2.533)">
      <polygon points="10.24 2.8 10.8 4.533 9.307 3.467 7.84 4.533 8.4 2.8 6.933 1.733 8.747 1.733 9.307 0 9.867 1.733 11.707 1.733"/>
      <polygon points="2.48 4.667 2.88 5.973 1.787 5.173 .667 5.973 1.093 4.667 0 3.867 1.36 3.867 1.787 2.56 2.213 3.867 3.573 3.867"/>
      <polygon points="29.867 19.84 30.987 23.307 28.053 21.173 25.093 23.307 26.24 19.84 23.28 17.707 26.933 17.707 28.053 14.213 29.173 17.707 32.827 17.707"/>
      <polygon points="19.04 4.587 19.733 6.747 17.893 5.413 16.053 6.747 16.747 4.587 14.907 3.253 17.2 3.253 17.893 1.067 18.587 3.253 20.88 3.253"/>
      <polygon points="26.453 9.707 27.28 12.293 25.067 10.693 22.853 12.293 23.707 9.707 21.493 8.08 24.24 8.08 25.067 5.493 25.92 8.08 28.667 8.08"/>
    </g>
  </g>
</svg>
