<svg xmlns="http://www.w3.org/2000/svg" xmlns:xlink="http://www.w3.org/1999/xlink" width="57" height="40" viewBox="0 0 57 40">
  <defs>
    <path id="digiteal_standard-a" d="M8.27692479,26.1229011 C9.55112661,26.1229011 10.669442,25.838239 11.6318711,25.2689147 C12.5943001,24.6995905 13.0755146,23.7534279 13.0755146,22.4304268 C13.0755146,21.3676883 12.6959652,20.5570791 11.9368662,19.9985991 C11.4976732,19.6786931 10.8741277,19.4265638 10.0662295,19.2422112 L10.0662295,19.2422112 L8.39078964,18.8599507 C7.26298547,18.5996882 6.53913039,18.3828028 6.2192244,18.2092944 C5.73123221,17.9381877 5.48723612,17.509839 5.48723612,16.9242483 C5.48723612,16.3928791 5.69598833,15.9265754 6.11349276,15.5253374 C6.53099719,15.1240994 7.21689732,14.9234804 8.17119315,14.9234804 C9.35321867,14.9234804 10.1909386,15.2352532 10.6843529,15.8587987 C10.9500376,16.2003933 11.1235459,16.6910965 11.2048779,17.3309085 L11.2048779,17.3309085 L12.7257869,17.3309085 C12.7257869,16.0024853 12.2879495,15.0359897 11.4122746,14.4314216 C10.5365997,13.8268535 9.47250565,13.5245694 8.21999237,13.5245694 C6.85903638,13.5245694 5.80714211,13.868875 5.06430956,14.5574862 C4.32147701,15.2460974 3.95006073,16.1271944 3.95006073,17.2007772 C3.95006073,18.193028 4.32961021,18.9385716 5.08870917,19.4374081 C5.52790214,19.7247813 6.27615682,19.9877548 7.33347323,20.2263288 L7.33347323,20.2263288 L8.95198065,20.5923229 C9.83036659,20.792942 10.4756007,21.0288048 10.887683,21.2999116 C11.2943432,21.5764405 11.4976732,22.0400331 11.4976732,22.6906893 C11.4976732,23.558231 11.0151032,24.160088 10.0499631,24.4962604 C9.55112661,24.6697688 8.9980688,24.7565229 8.39078964,24.7565229 C7.03525578,24.7565229 6.08909315,24.3607071 5.55230174,23.5690753 C5.2703507,23.1461487 5.11039771,22.595802 5.07244276,21.9180351 L5.07244276,21.9180351 L3.55153378,21.9180351 C3.53526737,23.2085033 3.94734966,24.2305758 4.78778065,24.9842526 C5.62821164,25.7433516 6.79125969,26.1229011 8.27692479,26.1229011 Z"/>
    <path id="digiteal_standard-b" d="M19.125698,26.0822351 C20.4758097,26.0822351 21.5493925,25.5698433 22.3464464,24.5450597 C23.0133691,23.6937844 23.4064739,22.6391791 23.5257609,21.3812436 L23.5257609,21.3812436 L22.2000488,21.3812436 C22.0644954,22.1674533 21.8584542,22.8018431 21.5819253,23.2844132 C21.0559782,24.2007541 20.2914571,24.6589245 19.288362,24.6589245 C18.1985128,24.6589245 17.3797704,24.2251537 16.8321347,23.357612 C16.5013844,22.837087 16.2709437,22.2216746 16.1408124,21.5113749 L16.1408124,21.5113749 L20.3944777,21.5113749 L20.7360722,20.3564601 L16.0188144,20.3564601 C16.0133922,20.2263288 16.0106812,20.0907754 16.0106812,19.9497999 C16.0106812,19.6407382 16.0188144,19.3479429 16.0350808,19.071414 L16.0350808,19.071414 L20.3944777,19.071414 L20.7360722,17.9164991 L16.1977448,17.9164991 C16.3441425,17.1953551 16.5854275,16.6070534 16.9215999,16.151594 C17.5288791,15.3220073 18.3286441,14.907214 19.3208948,14.907214 C20.128793,14.907214 20.7577607,15.1322326 21.207798,15.5822698 C21.6578352,16.0323071 21.9560527,16.6422973 22.1024503,17.4122405 L22.1024503,17.4122405 L23.4281624,17.4122405 C23.3522525,16.3983012 22.9632143,15.4928046 22.2610478,14.6957507 C21.5588812,13.8986968 20.5734081,13.5001698 19.3046284,13.5001698 C17.8135412,13.5001698 16.645071,14.1128711 15.7992179,15.3382737 C15.2949593,16.0648399 14.9506537,16.9242483 14.7663011,17.9164991 L14.7663011,17.9164991 L13.042062,17.9164991 L12.7004675,19.071414 L14.6361698,19.071414 C14.6253256,19.272033 14.6199034,19.472652 14.6199034,19.673271 C14.6199034,19.9064228 14.6253256,20.1341525 14.6361698,20.3564601 L14.6361698,20.3564601 L13.042062,20.3564601 L12.7004675,21.5113749 L14.7500347,21.5113749 C14.961498,22.9265522 15.441357,24.0299568 16.1896116,24.8215886 C16.9812434,25.6620196 17.9599389,26.0822351 19.125698,26.0822351 Z"/>
    <path id="digiteal_standard-c" d="M24.6148313,25.7731733 L24.6148313,20.7224542 L28.3723711,20.7224542 C29.5760852,20.7224542 30.4680265,20.3767931 31.048195,19.6854708 C31.6283635,18.9941485 31.9184477,18.1821837 31.9184477,17.2495765 C31.9184477,16.1651494 31.5931196,15.3233629 30.9424633,14.7242169 C30.2918071,14.1250709 29.4351097,13.8254979 28.3723711,13.8254979 L28.3723711,13.8254979 L22.9963239,13.8254979 L22.9963239,25.7731733 L24.6148313,25.7731733 Z M27.8355797,19.3560761 L24.6148313,19.3560761 L24.6148313,15.2162757 L27.8355797,15.2162757 C28.4591253,15.2162757 28.9498286,15.3003188 29.3076895,15.468405 C29.9583458,15.7828888 30.2836739,16.3793237 30.2836739,17.2577097 C30.2836739,18.0384972 30.0572997,18.5834218 29.6045514,18.8924835 C29.1518031,19.2015452 28.5621459,19.3560761 27.8355797,19.3560761 L27.8355797,19.3560761 Z M33.3580247,25.7731733 L34.651204,22.194564 L39.376595,22.194564 L40.5884422,25.7731733 L42.3614805,25.7731733 L38.0264833,13.8254979 L36.1965126,13.8254979 L31.6988512,25.7731733 L33.3580247,25.7731733 Z M38.85607,20.8769851 L35.1147965,20.8769851 L37.0423657,15.5985362 L38.85607,20.8769851 Z"/>
    <path id="digiteal_standard-d" d="M5.59198641,34.5563733 C6.43283297,34.5563733 7.02565204,34.1848882 7.37044362,33.441918 C7.56619626,33.0214947 7.66407258,32.551021 7.66407258,32.030497 C7.66407258,31.356485 7.49835017,30.8037063 7.16690536,30.3721607 C6.79542024,29.8939014 6.27267172,29.6547717 5.59865979,29.6547717 L5.59865979,29.6547717 L3.61332763,29.6547717 L3.61332763,34.5563733 L5.59198641,34.5563733 Z M5.46519208,33.9891356 L4.28066617,33.9891356 L4.28066617,30.2253462 L5.4585187,30.2253462 C5.99461399,30.2253462 6.38333869,30.3932931 6.6246928,30.7291868 C6.86604691,31.0650805 6.98672396,31.5366664 6.98672396,32.1439445 C6.98672396,32.3018813 6.97004049,32.4731649 6.93667357,32.6577952 C6.87883756,32.9669954 6.78429793,33.220584 6.65305469,33.4185611 C6.48844451,33.6654764 6.27712064,33.832311 6.01908307,33.919065 C5.87449306,33.9657787 5.68986273,33.9891356 5.46519208,33.9891356 L5.46519208,33.9891356 Z M9.04880005,30.3354571 L9.04880005,29.6547717 L8.43818529,29.6547717 L8.43818529,30.3354571 L9.04880005,30.3354571 Z M9.04880005,34.5563733 L9.04880005,30.9994589 L8.43818529,30.9994589 L8.43818529,34.5563733 L9.04880005,34.5563733 Z M10.5736686,34.5563733 L10.5736686,32.5009706 C10.5736686,32.247382 10.6548615,32.0232675 10.8172472,31.828627 C10.9796329,31.6339866 11.2120892,31.5366664 11.514616,31.5366664 C11.5502074,31.5366664 11.5830182,31.5377787 11.6130484,31.5400031 C11.6430786,31.5422276 11.6758894,31.5466765 11.7114808,31.5533499 L11.7114808,31.5533499 L11.7114808,30.9193783 C11.6469714,30.9127049 11.60137,30.908256 11.5746764,30.9060315 C11.5479829,30.903807 11.529075,30.9026948 11.5179527,30.9026948 C11.2799352,30.9026948 11.0697236,30.9888927 10.8873177,31.1612885 C10.7049119,31.3336843 10.5903521,31.4799427 10.5436384,31.6000636 L10.5436384,31.6000636 L10.5436384,30.9827754 L9.97306393,30.9827754 L9.97306393,34.5563733 L10.5736686,34.5563733 Z M13.6267424,34.6831677 C13.8091483,34.6831677 13.9726463,34.665372 14.1172363,34.6297806 C14.3863962,34.5674956 14.612179,34.4473747 14.7945849,34.2694178 C14.9035835,34.1670925 15.002016,34.0352932 15.0898822,33.8740197 C15.1777484,33.7127462 15.2294672,33.5664878 15.2450384,33.4352446 L15.2450384,33.4352446 L14.6544438,33.4352446 C14.6099546,33.5931814 14.5343229,33.7322102 14.4275487,33.8523312 C14.2406939,34.0592061 13.990442,34.1626436 13.6767928,34.1626436 C13.3408991,34.1626436 13.0928716,34.0530888 12.9327104,33.8339794 C12.7725491,33.6148699 12.6869073,33.3240215 12.675785,32.9614342 L12.675785,32.9614342 L15.2950888,32.9614342 C15.2950888,32.6010714 15.2772931,32.3385849 15.2417017,32.1739747 C15.2016614,31.9337329 15.1215808,31.7235212 15.0014598,31.5433398 C14.87689,31.3542606 14.6955963,31.2002166 14.4575789,31.0812079 C14.2195615,30.9621992 13.9737585,30.9026948 13.7201698,30.9026948 C13.2174415,30.9026948 12.810365,31.081764 12.4989403,31.4399023 C12.1875157,31.7980407 12.0318033,32.2640654 12.0318033,32.8379766 C12.0318033,33.4207856 12.1864034,33.8740197 12.4956036,34.1976789 C12.8048038,34.5213381 13.1818501,34.6831677 13.6267424,34.6831677 Z M14.6778007,32.4842872 L12.6924685,32.4842872 C12.7035908,32.1773114 12.8025793,31.9242789 12.9894341,31.7251896 C13.1762889,31.5261002 13.407633,31.4265556 13.6834662,31.4265556 C14.0682981,31.4265556 14.3430191,31.5711456 14.5076293,31.8603256 C14.5966078,32.016038 14.6533316,32.2240251 14.6778007,32.4842872 L14.6778007,32.4842872 Z M17.323798,34.6598108 C17.7397723,34.6598108 18.0812272,34.5502561 18.3481626,34.3311466 C18.615098,34.1120371 18.7819327,33.7655772 18.8486665,33.2917668 L18.8486665,33.2917668 L18.2647453,33.2917668 C18.2091338,33.5564778 18.1084769,33.765021 17.9627746,33.9173967 C17.8170724,34.0697723 17.6196514,34.1459601 17.3705117,34.1459601 C17.0457402,34.1459601 16.8077228,34.0236147 16.6564594,33.7789239 C16.505196,33.5342331 16.4295643,33.2328186 16.4295643,32.8746802 C16.4295643,32.5187663 16.4829514,32.2195762 16.5897256,31.9771099 C16.7543357,31.6034003 17.0279445,31.4165455 17.410552,31.4165455 C17.6908342,31.4165455 17.8943724,31.4893966 18.0211667,31.6350989 C18.1479611,31.7808011 18.2291539,31.9637631 18.2647453,32.1839848 L18.2647453,32.1839848 L18.8486665,32.1839848 C18.7975039,31.7057255 18.6456844,31.3687196 18.393208,31.1729669 C18.1407316,30.9772143 17.8131796,30.879338 17.410552,30.879338 C16.9389661,30.879338 16.5507975,31.0539582 16.2460462,31.4031987 C15.941295,31.7524392 15.7889193,32.2407086 15.7889193,32.8680068 C15.7889193,33.379633 15.9279482,33.8061736 16.2060059,34.1476285 C16.4840636,34.4890834 16.856661,34.6598108 17.323798,34.6598108 Z M20.2901178,34.6130971 C20.3768718,34.6130971 20.4575085,34.6086482 20.532028,34.5997503 C20.6065475,34.5908525 20.6782864,34.5763935 20.7472447,34.5563733 L20.7472447,34.5563733 L20.7472447,34.082563 C20.7027555,34.0870119 20.6638274,34.0897925 20.6304604,34.0909047 C20.5970935,34.0920169 20.5659511,34.092573 20.537033,34.092573 C20.4280344,34.092573 20.3501783,34.0803385 20.3034646,34.0558694 C20.218935,34.0136047 20.1766702,33.9301873 20.1766702,33.8056175 L20.1766702,33.8056175 L20.1766702,31.4732693 L20.7472447,31.4732693 L20.7472447,30.9827754 L20.1766702,30.9827754 L20.1766702,29.9851043 L19.5693922,29.9851043 L19.5693922,30.9827754 L19.0855717,30.9827754 L19.0855717,31.4732693 L19.5693922,31.4732693 L19.5693922,33.8389844 C19.5693922,34.068104 19.6194426,34.2544026 19.7195433,34.3978804 C19.8196441,34.5413582 20.0098356,34.6130971 20.2901178,34.6130971 Z M25.3351972,34.5563733 C26.1760437,34.5563733 26.7688628,34.1848882 27.1136544,33.441918 C27.309407,33.0214947 27.4072833,32.551021 27.4072833,32.030497 C27.4072833,31.356485 27.2415609,30.8037063 26.9101161,30.3721607 C26.538631,29.8939014 26.0158825,29.6547717 25.3418705,29.6547717 L25.3418705,29.6547717 L23.3565384,29.6547717 L23.3565384,34.5563733 L25.3351972,34.5563733 Z M25.2084028,33.9891356 L24.0238769,33.9891356 L24.0238769,30.2253462 L25.2017295,30.2253462 C25.7378247,30.2253462 26.1265494,30.3932931 26.3679036,30.7291868 C26.6092577,31.0650805 26.7299347,31.5366664 26.7299347,32.1439445 C26.7299347,32.3018813 26.7132512,32.4731649 26.6798843,32.6577952 C26.6220483,32.9669954 26.5275087,33.220584 26.3962654,33.4185611 C26.2316553,33.6654764 26.0203314,33.832311 25.7622938,33.919065 C25.6177038,33.9657787 25.4330735,33.9891356 25.2084028,33.9891356 L25.2084028,33.9891356 Z M29.5761336,34.6831677 C29.7585395,34.6831677 29.9220374,34.665372 30.0666274,34.6297806 C30.3357873,34.5674956 30.5615702,34.4473747 30.743976,34.2694178 C30.8529747,34.1670925 30.9514071,34.0352932 31.0392733,33.8740197 C31.1271396,33.7127462 31.1788583,33.5664878 31.1944296,33.4352446 L31.1944296,33.4352446 L30.6038349,33.4352446 C30.5593457,33.5931814 30.483714,33.7322102 30.3769398,33.8523312 C30.1900851,34.0592061 29.9398331,34.1626436 29.626184,34.1626436 C29.2902903,34.1626436 29.0422628,34.0530888 28.8821015,33.8339794 C28.7219403,33.6148699 28.6362985,33.3240215 28.6251762,32.9614342 L28.6251762,32.9614342 L31.2444799,32.9614342 C31.2444799,32.6010714 31.2266843,32.3385849 31.1910929,32.1739747 C31.1510526,31.9337329 31.0709719,31.7235212 30.950851,31.5433398 C30.8262811,31.3542606 30.6449875,31.2002166 30.4069701,31.0812079 C30.1689527,30.9621992 29.9231496,30.9026948 29.669561,30.9026948 C29.1668326,30.9026948 28.7597561,31.081764 28.4483315,31.4399023 C28.1369068,31.7980407 27.9811945,32.2640654 27.9811945,32.8379766 C27.9811945,33.4207856 28.1357946,33.8740197 28.4449948,34.1976789 C28.754195,34.5213381 29.1312412,34.6831677 29.5761336,34.6831677 Z M30.6271918,32.4842872 L28.6418596,32.4842872 C28.6529819,32.1773114 28.7519705,31.9242789 28.9388253,31.7251896 C29.1256801,31.5261002 29.3570241,31.4265556 29.6328574,31.4265556 C30.0176893,31.4265556 30.2924103,31.5711456 30.4570205,31.8603256 C30.5459989,32.016038 30.6027227,32.2240251 30.6271918,32.4842872 L30.6271918,32.4842872 Z M33.5334511,34.6698209 C34.0183838,34.6698209 34.3976546,34.4829661 34.6712634,34.1092565 C34.9448722,33.7355469 35.0816766,33.2661855 35.0816766,32.7011722 C35.0816766,32.1050164 34.9432038,31.6540068 34.6662583,31.3481433 C34.3893128,31.0422798 34.0283939,30.889348 33.5835015,30.889348 C33.3699532,30.889348 33.1719761,30.9343934 32.9895702,31.0244841 C32.8071644,31.1145748 32.6503398,31.2452619 32.5190966,31.4165455 L32.5190966,31.4165455 L32.5190966,29.6380883 L31.9351753,29.6380883 L31.9351753,34.5563733 L32.4890663,34.5563733 L32.4890663,34.0992464 C32.6158607,34.27053 32.7348694,34.3950999 32.8460924,34.472956 C33.0329472,34.6041993 33.2620668,34.6698209 33.5334511,34.6698209 Z M33.4967475,34.1392867 C33.0652019,34.1392867 32.7704607,33.9424219 32.612524,33.5486921 C32.5279944,33.3395927 32.4857296,33.0670962 32.4857296,32.7312024 C32.4857296,32.2662899 32.588611,31.9326206 32.7943737,31.7301946 C33.0001364,31.5277686 33.2398222,31.4265556 33.513431,31.4265556 C33.8270801,31.4265556 34.0645414,31.5500132 34.2258149,31.7969285 C34.3870884,32.0438437 34.4677251,32.3552684 34.4677251,32.7312024 C34.4677251,33.1538502 34.3870884,33.4941928 34.2258149,33.7522304 C34.0645414,34.010268 33.8215189,34.1392867 33.4967475,34.1392867 Z M36.3929968,30.3354571 L36.3929968,29.6547717 L35.782382,29.6547717 L35.782382,30.3354571 L36.3929968,30.3354571 Z M36.3929968,34.5563733 L36.3929968,30.9994589 L35.782382,30.9994589 L35.782382,34.5563733 L36.3929968,34.5563733 Z M38.1414238,34.6130971 C38.2281778,34.6130971 38.3088145,34.6086482 38.383334,34.5997503 C38.4578535,34.5908525 38.5295924,34.5763935 38.5985507,34.5563733 L38.5985507,34.5563733 L38.5985507,34.082563 C38.5540614,34.0870119 38.5151334,34.0897925 38.4817664,34.0909047 C38.4483995,34.0920169 38.417257,34.092573 38.388339,34.092573 C38.2793404,34.092573 38.2014842,34.0803385 38.1547705,34.0558694 C38.070241,34.0136047 38.0279762,33.9301873 38.0279762,33.8056175 L38.0279762,33.8056175 L38.0279762,31.4732693 L38.5985507,31.4732693 L38.5985507,30.9827754 L38.0279762,30.9827754 L38.0279762,29.9851043 L37.4206982,29.9851043 L37.4206982,30.9827754 L36.9368777,30.9827754 L36.9368777,31.4732693 L37.4206982,31.4732693 L37.4206982,33.8389844 C37.4206982,34.068104 37.4707485,34.2544026 37.5708493,34.3978804 C37.6709501,34.5413582 37.8611416,34.6130971 38.1414238,34.6130971 Z"/>
  </defs>
  <g fill="none">
    <path fill="#243E90" stroke="#24408F" d="M53.9793473,0.5 C54.5373022,0.548863266 55.0535588,0.825724178 55.4290261,1.24071437 C55.7993106,1.64997613 56.0333333,2.1956493 56.0333333,2.8 L56.0333333,2.8 L56.0333333,37.2 C56.0333333,37.8145743 55.7662608,38.388642 55.3526057,38.8103292 C54.9427381,39.2281554 54.3853005,39.5 53.7866667,39.5 L53.7866667,39.5 L2.74666667,39.5 C2.14803286,39.5 1.59059527,39.2281554 1.18072768,38.8103292 C0.767072534,38.388642 0.5,37.8145743 0.5,37.2 L0.5,37.2 L0.5,2.44063453 C0.583444087,1.95706335 0.825075105,1.51295049 1.16214813,1.16821672 C1.49471716,0.828089295 1.92172909,0.583111522 2.38838974,0.5 L2.38838974,0.5 Z"/>
    <use fill="#000" xlink:href="#digiteal_standard-a"/>
    <use fill="#FFF" xlink:href="#digiteal_standard-a"/>
    <use fill="#000" xlink:href="#digiteal_standard-b"/>
    <use fill="#FFCE08" xlink:href="#digiteal_standard-b"/>
    <use fill="#000" xlink:href="#digiteal_standard-c"/>
    <use fill="#FFF" xlink:href="#digiteal_standard-c"/>
    <use fill="#000" xlink:href="#digiteal_standard-d"/>
    <use fill="#FFF" xlink:href="#digiteal_standard-d"/>
    <g fill="#FFCC05" transform="translate(20.613 2.533)">
      <polygon points="10.24 2.8 10.8 4.533 9.307 3.467 7.84 4.533 8.4 2.8 6.933 1.733 8.747 1.733 9.307 0 9.867 1.733 11.707 1.733"/>
      <polygon points="2.48 4.667 2.88 5.973 1.787 5.173 .667 5.973 1.093 4.667 0 3.867 1.36 3.867 1.787 2.56 2.213 3.867 3.573 3.867"/>
      <polygon points="29.867 19.84 30.987 23.307 28.053 21.173 25.093 23.307 26.24 19.84 23.28 17.707 26.933 17.707 28.053 14.213 29.173 17.707 32.827 17.707"/>
      <polygon points="19.04 4.587 19.733 6.747 17.893 5.413 16.053 6.747 16.747 4.587 14.907 3.253 17.2 3.253 17.893 1.067 18.587 3.253 20.88 3.253"/>
      <polygon points="26.453 9.707 27.28 12.293 25.067 10.693 22.853 12.293 23.707 9.707 21.493 8.08 24.24 8.08 25.067 5.493 25.92 8.08 28.667 8.08"/>
    </g>
  </g>
</svg>
