<svg enable-background="new 0 0 200 150" viewBox="0 0 200 150" xmlns="http://www.w3.org/2000/svg" xmlns:xlink="http://www.w3.org/1999/xlink"><mask id="a" height="15.6" maskUnits="userSpaceOnUse" width="15.6" x="45.5" y="48.4"><path clip-rule="evenodd" d="m36.1 23.4h93.8v81.2h-93.8z" fill="#fff" fill-rule="evenodd"/></mask><mask id="b" height="81.2" maskUnits="userSpaceOnUse" width="93.8" x="36.1" y="23.4"><path clip-rule="evenodd" d="m36.1 23.4h93.8v81.2h-93.8z" fill="#fff" fill-rule="evenodd"/></mask><path d="m200 137.1c0 7.1-5.5 12.9-12.1 12.9h-175.8c-6.6 0-12.1-5.8-12.1-12.9h.1v-124.2c0-7.1 5.4-12.9 12.1-12.9h175.6c6.7 0 12.1 5.8 12.1 12.9z" fill="#ee6b8e"/><g transform="translate(17 11)"><path d="m39.2 29.6h56.2c15.5 0 28.1 12.6 28.1 28.1v12.5c0 15.5-12.6 28.1-28.1 28.1h-56.2z" fill="#fff"/><g clip-rule="evenodd" fill-rule="evenodd"><path d="m45.5 95.2h15.6v-25h-15.6z" fill="#0a0b09"/><path d="m61.1 56.2c0 4.3-3.5 7.8-7.8 7.8s-7.8-3.5-7.8-7.8 3.5-7.8 7.8-7.8 7.8 3.5 7.8 7.8" fill="#0a0b09" mask="url(#a)"/><path d="m126.7 45.7c-2-5.1-5-9.4-8.9-12.8-6.8-6-16.4-9.3-27.8-9.5h-53.9v81.2h53.9c11.8-.2 21.1-3.1 27.7-8.7 8-6.8 12.1-17.6 12.1-32 .1-6.8-1-12.9-3.1-18.2zm-37.8 52.7h-46.5v-68.8h46.5c10.2 0 18.8 2.8 24.7 7.9 6.7 5.9 10.1 14.8 10.1 26.4-.1 23.2-11.4 34.5-34.8 34.5z" fill="#0a0b09" mask="url(#b)"/><path d="m86 95.2h-18.6v-59.3h18.6-.8c15.6 0 32.1 6.3 32.1 29.8 0 24.8-16.6 29.6-32.1 29.6h.8z" fill="#b9215e"/><path d="m76.7 58.5c0-.4 0-.7-.1-1.1-.1-.6-.2-1.1-.4-1.6 0 0 0 0 0-.1-.3-1-.8-1.8-1.4-2.5-.1-.1-.2-.2-.2-.2-.2-.2-.3-.3-.5-.4-.2-.2-.4-.3-.6-.4s-.4-.2-.5-.3c-.1 0-.1 0-.2-.1-.1 0-.1 0-.2-.1-.5-.2-1.1-.2-1.9-.3-.3 0-.6 0-.9 0h-5.5v15.6h5.7c1.1 0 2-.1 2.6-.3.9-.3 1.6-.7 2.1-1.2l.3-.3c.2-.2.3-.4.5-.6.1-.2.3-.4.4-.7v-.1c.1-.2.2-.5.3-.7.1-.1.1-.2.1-.4.1-.3.2-.6.2-.9 0-.2.1-.4.1-.6.1-.5.1-1.1.1-1.8.1-.3 0-.6 0-.9zm-6.5 5.5c-.1 0-.2 0-.3 0 0 0-1.2 0-2.5 0v-9.4h1.3c1.2 0 2 0 2.4.1.5.1 1 .3 1.4.7.4.3.6.8.8 1.4s.3 1.4.3 2.5-.1 2-.3 2.6-.5 1.1-.8 1.4-.7.5-1.2.6c-.2.1-.5.1-.8.1-.1 0-.2 0-.3 0z" fill="#fffffe"/><path d="m76.2 54.9c-.3-.8-.8-1.5-1.4-2s-1.4-.9-2.2-1.1c-.5-.1-1.1-.2-1.9-.2.8 0 1.4.1 1.9.3.1 0 .1 0 .2.1.1 0 .1 0 .2.1.2.1.4.1.5.3.2.1.4.2.6.4.2.1.4.3.5.4s.2.2.2.2c.6.7 1.1 1.6 1.4 2.6.2.5.3 1 .4 1.6 0 .3.1.7.1 1.1 0-.2 0-.4 0-.6.1-1.4-.1-2.4-.5-3.2zm.5 3.6c0 .8-.2 1.5-.4 2-.4.9-.9 1.6-1.6 2.2-.5.4-1.2.7-2.1 1-.5.1-1.2.2-2.1.2-.1 0-.2 0-.4 0-.1 0-.2 0-.3 0 0 0-1.2 0-2.5 0h-3.1v3.1h5.8c1.1 0 2-.1 2.6-.3.9-.3 1.6-.7 2.1-1.3.1-.1.2-.2.2-.3.2-.2.3-.4.5-.6.1-.2.3-.4.4-.7v-.1c.1-.2.2-.5.3-.7 0-.1.1-.3.1-.4.1-.3.2-.6.2-.9 0-.2.1-.4.1-.6.1-.5.1-1.1.1-1.8.2-.2.1-.5.1-.8z" fill="#fffffe"/><path d="m79.9 67.1v-15.6h9.1v2.6h-6.6v3.5h6.1v2.7h-6.1v4.2h6.8v2.6z" fill="#fffffe"/><path d="m101.8 51.5h-3.3l-6 15.6h3.3l1.3-3.5h6.2l1.4 3.5h3.4zm-3.2 9.4 1.5-6.3 1.6 6.3z" fill="#fffffe"/><path d="m108 51.5h2.7v13.5h6.7v2.1h-9.4z" fill="#fffffe"/></g></g></svg>