<svg enable-background="new 0 0 212 150" viewBox="0 0 212 150" xmlns="http://www.w3.org/2000/svg"><path d="m212 137.1c0 7.1-5.8 12.9-12.9 12.9h-186.2c-7.1 0-12.9-5.8-12.9-12.9h.1v-124.2c0-7.1 5.8-12.9 12.8-12.9h186.1c7.1 0 12.9 5.8 12.9 12.9z" fill="#272a2d"/><g clip-rule="evenodd" fill-rule="evenodd"><path d="m125.2 108.7h-38.4v-67h38.4z" fill="#ff5f00"/><path d="m89.2 75.2c0-13.6 6.6-25.7 16.8-33.5-7.5-5.7-16.9-9.1-27.2-9.1-24.3 0-44 19.1-44 42.6s19.7 42.6 44 42.6c10.3 0 19.7-3.4 27.2-9.1-10.2-7.8-16.8-19.9-16.8-33.5z" fill="#e63727"/><path d="m177.1 75.2c0 23.5-19.7 42.6-44 42.6-10.3 0-19.7-3.4-27.2-9.1 10.2-7.8 16.8-19.9 16.8-33.5s-6.6-25.7-16.8-33.5c7.5-5.7 16.9-9.1 27.2-9.1 24.4 0 44 19.1 44 42.6z" fill="#ffad34"/></g></svg>