<svg enable-background="new 0 0 212 150" viewBox="0 0 212 150" xmlns="http://www.w3.org/2000/svg"><path d="m212 137.1c0 7.1-5.8 12.9-12.9 12.9h-186.2c-7.1 0-12.9-5.8-12.9-12.9h.1v-124.2c0-7.1 5.7-12.9 12.8-12.9h186.1c7.1 0 12.9 5.8 12.9 12.9z" fill="#3570de"/><g fill="#fff" transform="translate(9 17.25)"><path clip-rule="evenodd" d="m87.9 78.7h-11.1l6.9-41.8h11.1z" fill-rule="evenodd"/><path clip-rule="evenodd" d="m128.1 37.9c-2.2-.8-5.7-1.8-9.9-1.8-11 0-18.7 5.7-18.7 13.8-.1 6 5.5 9.3 9.7 11.4 4.3 2 5.7 3.4 5.7 5.2 0 2.8-3.5 4.1-6.7 4.1-4.4 0-6.8-.7-10.4-2.2l-1.5-.7-1.6 9.4c2.6 1.2 7.4 2.2 12.4 2.2 11.6 0 19.2-5.6 19.3-14.3 0-4.8-2.9-8.4-9.3-11.4-3.9-1.9-6.3-3.2-6.3-5.2 0-1.8 2-3.6 6.4-3.6 3.6-.1 6.3.8 8.3 1.6l1 .4z" fill-rule="evenodd"/><path d="m156.5 36.9h-8.6c-2.6 0-4.6.8-5.8 3.5l-16.5 38.4h11.6s1.9-5.2 2.3-6.3h14.2c.3 1.5 1.3 6.3 1.3 6.3h10.3zm-13.7 27c.9-2.4 4.4-11.7 4.4-11.7s.9-2.5 1.5-4l.8 3.6s2.1 10 2.6 12.1z"/><g clip-rule="evenodd" fill-rule="evenodd"><path d="m67.5 36.9-10.8 28.5-1.2-5.8c-2-6.7-8.3-13.9-15.3-17.5l9.9 36.6h11.7l17.4-41.8z"/><path d="m46.6 36.9h-17.9l-.2.8c13.9 3.5 23.1 11.8 26.9 21.9l-3.9-19.2c-.5-2.7-2.5-3.4-4.9-3.5z" fill-opacity=".6"/></g></g></svg>